<svg xmlns="http://www.w3.org/2000/svg" viewBox="0 0 750 500"><g id="freepik--background-complete--inject-32"><path d="M77.55,389.18a23.11,23.11,0,0,1,6.14-15.24C85.54,381.59,77.55,389.18,77.55,389.18Z" style="fill:#ebebeb"></path><path d="M86.46,384.87a23,23,0,0,1,16.42-.45C96.61,389.17,86.46,384.87,86.46,384.87Z" style="fill:#ebebeb"></path><path d="M87.47,379.92a18.2,18.2,0,0,1,2.24-12.77C92.4,372.75,87.47,379.92,87.47,379.92Z" style="fill:#ebebeb"></path><path d="M53,362c13,3.46,20,14.78,20,14.78C61.91,376.83,53,362,53,362Z" style="fill:#ebebeb"></path><path d="M73.83,367.37c-.68-14,13-29.91,13-29.91-2.08,17.42-13,29.91-13,29.91" style="fill:#ebebeb"></path><path d="M73.76,327.41a37.62,37.62,0,0,1-4.93,20.1C66.89,338.48,73.76,327.41,73.76,327.41Z" style="fill:#ebebeb"></path><path d="M68.47,355.92c-10.26-1.1-15.84-11.31-15.84-11.31C65,348.09,68.47,355.92,68.47,355.92Z" style="fill:#ebebeb"></path><path d="M46.34,398.82a23.07,23.07,0,0,1,16.13-3.1C57.05,401.42,46.34,398.82,46.34,398.82Z" style="fill:#ebebeb"></path><path d="M72.93,403.43A15.15,15.15,0,0,1,66,411.2C66.47,406.46,72.93,403.43,72.93,403.43Z" style="fill:#ebebeb"></path><path d="M71.61,401.92a18.23,18.23,0,0,1-12.27,2.19C63.29,400,71.61,401.92,71.61,401.92Z" style="fill:#ebebeb"></path><path d="M76.85,420.81s0-.07,0-.21v-3c0-1,0-2.27,0-3.72s0-3.1-.1-4.93c-.09-3.64-.35-8-.72-12.79s-1-10.08-1.8-15.59c-1.63-11-3.84-20.87-5.62-27.95-.9-3.54-1.66-6.4-2.21-8.36L65.73,342l-.15-.6c0-.13,0-.2,0-.2s0,.06.08.19.11.35.19.58l.69,2.25c.61,1.95,1.42,4.8,2.35,8.33a256.78,256.78,0,0,1,5.76,28c.81,5.52,1.38,10.81,1.77,15.62S77,405.33,77,409c0,1.82,0,3.48,0,4.93s0,2.7,0,3.72-.07,1.78-.09,2.35l0,.61A.58.58,0,0,1,76.85,420.81Z" style="fill:#e0e0e0"></path><path d="M58,391.1c.07-.1,4.22,2.62,9.26,6.07s9.08,6.35,9,6.46S72.07,401,67,397.55,58,391.21,58,391.1Z" style="fill:#e0e0e0"></path><path d="M76.29,392.6a3.79,3.79,0,0,1,.63-.7l1.85-1.78,6.17-5.78,6.16-5.78L93,376.8a3.89,3.89,0,0,1,.73-.6,3.89,3.89,0,0,1-.6.73c-.4.45-1,1.08-1.77,1.86-1.52,1.55-3.66,3.63-6.08,5.89s-4.63,4.26-6.26,5.69c-.81.71-1.48,1.28-1.95,1.67A4,4,0,0,1,76.29,392.6Z" style="fill:#e0e0e0"></path><path d="M44.85,384.45s10.6-.2,15.09,8.15A19.08,19.08,0,0,1,44.85,384.45Z" style="fill:#ebebeb"></path><path d="M59.33,380.2s8.63,6.16,7.26,15.53A19.09,19.09,0,0,1,59.33,380.2Z" style="fill:#ebebeb"></path><path d="M104.81,365s-3.41,11.87-14.23,14A22.23,22.23,0,0,1,104.81,365Z" style="fill:#ebebeb"></path><path d="M54.62,320.9s13.53,8.82,12,23.17A29.07,29.07,0,0,1,54.62,320.9Z" style="fill:#ebebeb"></path><path d="M99.65,399.39a5.31,5.31,0,0,1-.88.7c-.59.43-1.42,1.06-2.43,1.86A61.31,61.31,0,0,0,89,408.83a60.37,60.37,0,0,0-6.06,8c-.69,1.09-1.23,2-1.59,2.62a5.5,5.5,0,0,1-.6.94,5.25,5.25,0,0,1,.44-1c.31-.65.81-1.58,1.47-2.7a52.92,52.92,0,0,1,6-8.16,52.24,52.24,0,0,1,7.47-6.83c1-.77,1.91-1.37,2.53-1.74A4.57,4.57,0,0,1,99.65,399.39Z" style="fill:#e0e0e0"></path><path d="M87.87,408.2A23.1,23.1,0,0,1,91,392.07C92.43,402.13,87.87,408.2,87.87,408.2Z" style="fill:#ebebeb"></path><path d="M97,403.24a16.8,16.8,0,0,1,11.81-1.83C102.25,404.87,97,403.24,97,403.24Z" style="fill:#ebebeb"></path><polygon points="57.13 421.92 62.2 455.27 91.69 455.27 98.54 422.4 57.13 421.92" style="fill:#ebebeb"></polygon><path d="M94.41,443.29c0,.1-7.55.18-16.87.18s-16.88-.08-16.88-.18,7.56-.17,16.88-.17S94.41,443.2,94.41,443.29Z" style="fill:#fafafa"></path><path d="M94.53,441.65c0,.1-7.61.18-17,.18s-17-.08-17-.18,7.6-.17,17-.17S94.53,441.56,94.53,441.65Z" style="fill:#fafafa"></path><path d="M94.47,439.8c0,.1-7.61.17-17,.17s-17-.07-17-.17,7.61-.17,17-.17S94.47,439.7,94.47,439.8Z" style="fill:#fafafa"></path><path d="M65.59,453.37a55,55,0,0,1-1.47-8.46,26,26,0,0,1,.91,4.2A26.32,26.32,0,0,1,65.59,453.37Z" style="fill:#fafafa"></path><path d="M67.6,453a93.38,93.38,0,0,1-.56-8.2,32.51,32.51,0,0,1,.56,8.2Z" style="fill:#fafafa"></path><path d="M71.25,453a34.14,34.14,0,0,1-1-8.46,37.23,37.23,0,0,1,.57,4.22A36,36,0,0,1,71.25,453Z" style="fill:#fafafa"></path><path d="M73.82,453.19a21.47,21.47,0,0,1-.41-4.27,21.13,21.13,0,0,1,.13-4.29,36,36,0,0,1,.22,4.28A37,37,0,0,1,73.82,453.19Z" style="fill:#fafafa"></path><path d="M78.36,453a25.13,25.13,0,0,1-.31-4.05,23.77,23.77,0,0,1,0-4.06A25.28,25.28,0,0,1,78.4,449,23.77,23.77,0,0,1,78.36,453Z" style="fill:#fafafa"></path><path d="M81.68,453.19a26,26,0,0,1-.14-4.19,24.86,24.86,0,0,1,.21-4.19,50.25,50.25,0,0,1-.07,8.38Z" style="fill:#fafafa"></path><path d="M84.79,452.74a57.83,57.83,0,0,1,.85-8.72,27.67,27.67,0,0,1-.25,4.38A26.23,26.23,0,0,1,84.79,452.74Z" style="fill:#fafafa"></path><path d="M88.81,452.31A22.57,22.57,0,0,1,90.4,445a33.72,33.72,0,0,1-.76,3.67A36.46,36.46,0,0,1,88.81,452.31Z" style="fill:#fafafa"></path><path d="M53.74,415.31v6.24A2.46,2.46,0,0,0,56.2,424H98.9a2.46,2.46,0,0,0,2.46-2.46v-6.24Z" style="fill:#ebebeb"></path><polygon points="57.45 424.01 57.8 426 97.2 428.8 98.2 424.01 57.45 424.01" style="fill:#e0e0e0"></polygon><polygon points="161.49 41.05 159.4 98.43 173.51 104.84 176.63 112.93 201.92 102.64 198.46 94.48 203.29 79.42 161.49 41.05" style="fill:#f5f5f5"></polygon><path d="M161.49,41.05l41.92,38.24.08.08,0,.1-4.82,15.07v-.13c1.1,2.58,2.27,5.35,3.47,8.15l.07.18-.18.07-12.9,5.26-12.38,5-.19.07-.07-.18-3.12-8.09.1.1-14.1-6.42-.11,0v-.12c1.33-33.59,2.21-55.78,2.27-57.37-.05,1.59-.79,23.78-1.91,57.38l-.1-.16,14.11,6.4.07,0,0,.08c1,2.65,2.07,5.34,3.12,8.08l-.25-.11,12.38-5,12.9-5.25-.1.25c-1.19-2.81-2.36-5.58-3.46-8.16l0-.06,0-.07c1.69-5.23,3.31-10.27,4.85-15.06l0,.19Z" style="fill:#e0e0e0"></path><path d="M186.44,76.58a8.19,8.19,0,0,1-4.5,10.79,8.49,8.49,0,0,1-11-4.49,8.2,8.2,0,0,1,4.5-10.8A8.49,8.49,0,0,1,186.44,76.58Z" style="fill:#e0e0e0"></path><path d="M161.49,41.05c.1,0,4,8.58,8.78,19.26s8.52,19.37,8.42,19.42-4-8.58-8.78-19.27S161.39,41.09,161.49,41.05Z" style="fill:#e0e0e0"></path><path d="M257.49,266.45h0A13.52,13.52,0,0,1,240,259.36l-59.49-138,24.68-10,59.42,137.87A13,13,0,0,1,257.49,266.45Z" style="fill:#e0e0e0"></path><polygon points="207.57 110.35 178.55 122.16 174.32 112.2 203.34 100.39 207.57 110.35" style="fill:#e0e0e0"></polygon><polygon points="188.81 322.37 173.73 377.03 192.21 390.21 233.78 400.33 250.26 338.62 188.81 322.37" style="fill:#f5f5f5"></polygon><path d="M181.76,374.58l-8,2.45a24.31,24.31,0,0,0,6.49,7.56,35.38,35.38,0,0,0,12,5.62S183.33,385,181.76,374.58Z" style="fill:#ebebeb"></path><path d="M238.25,356.32c0,.11-10.51-2.57-23.41-6s-23.34-6.25-23.31-6.35,10.5,2.58,23.41,6S238.27,356.22,238.25,356.32Z" style="fill:#e0e0e0"></path><path d="M235.82,364.7c0,.1-10.51-2.58-23.41-6s-23.34-6.25-23.31-6.35,10.5,2.58,23.41,6S235.84,364.59,235.82,364.7Z" style="fill:#e0e0e0"></path><path d="M234.11,372.23c0,.11-10.51-2.57-23.41-6s-23.34-6.25-23.31-6.35,10.5,2.58,23.41,6S234.13,372.13,234.11,372.23Z" style="fill:#e0e0e0"></path><path d="M232.16,379.41c0,.1-10.51-2.57-23.41-6s-23.34-6.25-23.31-6.35,10.5,2.57,23.41,6S232.19,379.31,232.16,379.41Z" style="fill:#e0e0e0"></path><polygon points="670.05 272.27 658.55 313.96 672.64 324.01 704.35 331.73 716.91 284.67 670.05 272.27" style="fill:#f5f5f5"></polygon><path d="M664.67,312.09,658.55,314a18.6,18.6,0,0,0,5,5.77,26.8,26.8,0,0,0,9.14,4.28S665.87,320.07,664.67,312.09Z" style="fill:#ebebeb"></path><path d="M707.76,298.17c0,.07-8-2-17.86-4.57s-17.8-4.76-17.78-4.84,8,2,17.86,4.56S707.78,298.09,707.76,298.17Z" style="fill:#e0e0e0"></path><path d="M705.9,304.55c0,.08-8-2-17.85-4.56s-17.8-4.77-17.78-4.84,8,2,17.85,4.56S705.92,304.47,705.9,304.55Z" style="fill:#e0e0e0"></path><path d="M704.6,310.3c0,.08-8-2-17.86-4.56S668.94,301,669,300.89s8,2,17.86,4.57S704.62,310.22,704.6,310.3Z" style="fill:#e0e0e0"></path><path d="M703.11,315.78c0,.07-8-2-17.85-4.57s-17.8-4.76-17.78-4.84,8,2,17.85,4.56S703.13,315.7,703.11,315.78Z" style="fill:#e0e0e0"></path><path d="M609.26,65.05l-15.21,3.89-.73,4.65a9.62,9.62,0,0,0,0,3.69,3,3,0,0,0,2.15,2.29,12.59,12.59,0,0,0,4.41-.32l.3,1.18-14.31,3.66-.3-1.18A6.59,6.59,0,0,0,588.87,80c.73-1.3,1.4-3.78,2-7.43l6.61-38.29.6-.15,24.55,31.33c2.33,3,4.09,4.75,5.26,5.38a5.16,5.16,0,0,0,3.34.36l.3,1.18-20.82,5.32-.3-1.17.86-.22a6.74,6.74,0,0,0,3.34-1.6,1.76,1.76,0,0,0,.33-1.64,4.12,4.12,0,0,0-.49-1.13c-.1-.18-.61-.89-1.56-2.13ZM607.58,63l-10.2-13.18L594.56,66.3Z" style="fill:#e0e0e0"></path><rect x="644.67" y="173.35" width="61.41" height="55.88" rx="8.92" transform="translate(6.19 -19.7) rotate(1.68)" style="fill:#ebebeb"></rect><path d="M644.26,214.54,665,200.63a4.15,4.15,0,0,1,5.43.21l10.21,5.24,14.57-14.25a4.29,4.29,0,0,1,6.2.53l4.76,6-.23,24.48a7,7,0,0,1-7.23,6.94l-47.9-1.51A7,7,0,0,1,644,221Z" style="fill:#e0e0e0"></path><circle cx="667.78" cy="188.03" r="6.14" transform="translate(76.48 550.87) rotate(-47.26)" style="fill:#e0e0e0"></circle><rect x="50.49" y="42.34" width="42.68" height="38.84" rx="8.92" transform="translate(1.84 -2.08) rotate(1.68)" style="fill:#fafafa"></rect><path d="M50.21,71,64.62,61.3a2.9,2.9,0,0,1,3.78.15l7.1,3.64,10.13-9.9a3,3,0,0,1,4.31.36l3.31,4.16L93.12,72.9a8.62,8.62,0,0,1-8.89,8.53l-25.7-.81a8.61,8.61,0,0,1-8.34-8.93Z" style="fill:#f5f5f5"></path><path d="M70.82,52.35a4.26,4.26,0,1,1-4.45-4.07A4.27,4.27,0,0,1,70.82,52.35Z" style="fill:#f5f5f5"></path><path d="M428.83,401.4a26.72,26.72,0,1,1-34.63-15A26.7,26.7,0,0,1,428.83,401.4Z" style="fill:#f5f5f5"></path><path d="M422.91,403.73a20.36,20.36,0,1,1-26.39-11.43A20.33,20.33,0,0,1,422.91,403.73Z" style="fill:#ebebeb"></path><path d="M422.68,403.14c-.12.05-.53-.75-1.4-2.08a21.46,21.46,0,0,0-4.48-4.94,20.81,20.81,0,0,0-3.86-2.46,20.51,20.51,0,0,0-5-1.66,19.62,19.62,0,0,0-2.81-.35,19.34,19.34,0,0,0-2.94.07,19.76,19.76,0,0,0-3,.52,19.73,19.73,0,0,0-5.76,2.48,21.19,21.19,0,0,0-2.44,1.82,19.5,19.5,0,0,0-2.07,2.1,18.8,18.8,0,0,0-1.68,2.28,20.19,20.19,0,0,0-3.07,9.24,21.55,21.55,0,0,0,.52,6.64,11.77,11.77,0,0,1,.55,2.45,6.08,6.08,0,0,1-1.13-2.28,18.53,18.53,0,0,1-1-6.87,20,20,0,0,1,.73-4.8,20.87,20.87,0,0,1,2.22-5.13,18.69,18.69,0,0,1,1.76-2.48,18.94,18.94,0,0,1,2.2-2.29,21.74,21.74,0,0,1,2.62-2,20.85,20.85,0,0,1,6.21-2.67,20.41,20.41,0,0,1,3.25-.54,19.78,19.78,0,0,1,3.17,0,19.31,19.31,0,0,1,3,.43,20.4,20.4,0,0,1,9.25,4.67,19,19,0,0,1,4.28,5.48A6.19,6.19,0,0,1,422.68,403.14Z" style="fill:#e0e0e0"></path><path d="M410.56,421.65l1.35,3.28L409,426.14l-1.31-3.2a15.06,15.06,0,0,1-8.26.66l.15-4.24a12.81,12.81,0,0,0,6.53-.25l-2-4.9c-3.57.55-7.65,1-9.37-3.23-1.27-3.11-.11-6.7,4.3-9.13l-1.34-3.25,2.93-1.2,1.31,3.19a14.19,14.19,0,0,1,6.68-.65l0,4.2a12.82,12.82,0,0,0-5.11.32l2.05,5c3.56-.58,7.58-1,9.28,3.17C416.08,415.66,414.93,419.21,410.56,421.65Zm-8.24-11.74-1.71-4.16c-1.41,1-1.68,2.09-1.28,3.06S400.86,410,402.32,409.91Zm7.93,5c-.42-1-1.49-1.23-2.94-1.16l1.67,4.05C410.31,416.86,410.64,415.84,410.25,414.9Z" style="fill:#e0e0e0"></path><path d="M75.37,199.66a26.72,26.72,0,1,1-34.63-15A26.7,26.7,0,0,1,75.37,199.66Z" style="fill:#f5f5f5"></path><path d="M69.45,202a20.36,20.36,0,1,1-26.39-11.44A20.34,20.34,0,0,1,69.45,202Z" style="fill:#ebebeb"></path><path d="M69.21,201.4a12.08,12.08,0,0,1-1.39-2.08,21.67,21.67,0,0,0-4.48-4.95,20.28,20.28,0,0,0-3.86-2.45,20.66,20.66,0,0,0-5-1.66,19.6,19.6,0,0,0-5.76-.28,19.84,19.84,0,0,0-3,.52A19.73,19.73,0,0,0,40,193a19.34,19.34,0,0,0-2.44,1.82,20.2,20.2,0,0,0-3.75,4.38,20.36,20.36,0,0,0-2.2,4.74,20.58,20.58,0,0,0-.87,4.5,21.27,21.27,0,0,0,.52,6.64,12.66,12.66,0,0,1,.55,2.45,6,6,0,0,1-1.13-2.28,18.75,18.75,0,0,1-1.05-6.87,20.48,20.48,0,0,1,.74-4.8,20.71,20.71,0,0,1,2.22-5.13A19.57,19.57,0,0,1,34.34,196a19.84,19.84,0,0,1,2.21-2.29,20.75,20.75,0,0,1,2.62-2,22.57,22.57,0,0,1,3-1.59A21.25,21.25,0,0,1,45.38,189a20.41,20.41,0,0,1,3.25-.54,18.68,18.68,0,0,1,3.17,0,19.31,19.31,0,0,1,3,.42,21.12,21.12,0,0,1,5.26,1.92,20.58,20.58,0,0,1,4,2.76A19,19,0,0,1,68.34,199,5.79,5.79,0,0,1,69.21,201.4Z" style="fill:#e0e0e0"></path><path d="M57.1,219.91l1.35,3.28-2.93,1.2-1.31-3.19a15,15,0,0,1-8.26.65l.15-4.23a12.71,12.71,0,0,0,6.53-.26l-2-4.89c-3.57.55-7.65.95-9.37-3.23-1.28-3.11-.12-6.7,4.3-9.13l-1.34-3.25,2.93-1.2,1.31,3.19a14.33,14.33,0,0,1,6.68-.66l0,4.21a13,13,0,0,0-5.11.31l2.05,5c3.56-.58,7.58-1,9.27,3.17C62.62,213.91,61.47,217.47,57.1,219.91Zm-8.25-11.74L47.15,204c-1.41,1-1.68,2.09-1.28,3.05S47.4,208.29,48.85,208.17Zm7.94,5c-.42-1-1.5-1.24-2.94-1.16l1.66,4C56.85,215.12,57.18,214.09,56.79,213.16Z" style="fill:#e0e0e0"></path><path d="M126.94,108.18l.06.24,0,0Z" style="fill:#263238"></path></g><g id="freepik--Floor--inject-32"><path d="M697.92,455.49s.73,0,2.23,0l6.87,0v.12l-327.45.2-238-.08-72.13-.08-19.61,0-5.1,0c-1.14,0-1.73,0-1.73,0l1.73,0,5.1,0,19.61,0,72.13-.09,238-.07,327.45.2v.12l-6.87,0C698.65,455.51,697.92,455.49,697.92,455.49Z" style="fill:#263238"></path></g><g id="freepik--books-2--inject-32"><path d="M530.6,376.59h147a2.51,2.51,0,0,1,2.51,2.51v1a2.51,2.51,0,0,1-2.51,2.51h-147a0,0,0,0,1,0,0v-6.07A0,0,0,0,1,530.6,376.59Z" style="fill:#FFDE3E"></path><path d="M528.61,380.1c0,.13-12.33.22-27.54.22s-27.54-.09-27.54-.22,12.33-.21,27.54-.21S528.61,380,528.61,380.1Z" style="fill:#263238"></path><path d="M479.79,346.07h69a0,0,0,0,1,0,0v36.6a0,0,0,0,1,0,0h-69a15.14,15.14,0,0,1-15.14-15.14v-6.32A15.14,15.14,0,0,1,479.79,346.07Z" style="fill:#FFDE3E"></path><path d="M531.74,346.07H677.57a2.51,2.51,0,0,1,2.51,2.51v1a2.51,2.51,0,0,1-2.51,2.51H531.74A1.14,1.14,0,0,1,530.6,351v-3.79A1.14,1.14,0,0,1,531.74,346.07Z" style="fill:#FFDE3E"></path><path d="M675.62,376.59H547.28a12.23,12.23,0,0,1-12.23-12.22h0a12.23,12.23,0,0,1,12.23-12.22H675.62A30.23,30.23,0,0,0,675.62,376.59Z" style="fill:#f5f5f5"></path><g style="opacity:0.30000000000000004"><path d="M535.05,382.67H478.52a13.86,13.86,0,0,1-13.86-13.87v-9a13.75,13.75,0,0,1,13.75-13.76h58C523.2,354.1,524.19,373.32,535.05,382.67Z"></path></g><path d="M660,365.51c0,.12-26.35.22-58.83.22s-58.84-.1-58.84-.22,26.34-.22,58.84-.22S660,365.39,660,365.51Z" style="fill:#263238"></path><path d="M672.14,370.94c0,.12-26.35.22-58.84.22s-58.83-.1-58.83-.22,26.33-.22,58.83-.22S672.14,370.82,672.14,370.94Z" style="fill:#263238"></path><path d="M668.57,357.8c0,.12-26.35.22-58.84.22s-58.83-.1-58.83-.22,26.33-.22,58.83-.22S668.57,357.68,668.57,357.8Z" style="fill:#263238"></path><path d="M528.61,349.11c0,.12-12.33.22-27.54.22s-27.54-.1-27.54-.22,12.33-.22,27.54-.22S528.61,349,528.61,349.11Z" style="fill:#263238"></path><path d="M453.36,408.36h81.35a7.56,7.56,0,0,1,7.56,7.56v32a7.56,7.56,0,0,1-7.56,7.56H453.36A19.49,19.49,0,0,1,433.87,436v-8.14A19.49,19.49,0,0,1,453.36,408.36Z" style="fill:#FFDE3E"></path><path d="M520.66,408.36H708.06a3.24,3.24,0,0,1,3.24,3.24v1.35a3.24,3.24,0,0,1-3.24,3.24H520.66a1.87,1.87,0,0,1-1.87-1.87v-4.09A1.87,1.87,0,0,1,520.66,408.36Z" style="fill:#FFDE3E"></path><path d="M520.66,447.66H708.06a3.24,3.24,0,0,1,3.24,3.24v1.35a3.24,3.24,0,0,1-3.24,3.24H520.66a1.87,1.87,0,0,1-1.87-1.87v-4.09A1.87,1.87,0,0,1,520.66,447.66Z" style="fill:#FFDE3E"></path><path d="M705.56,447.66H540.27a15.74,15.74,0,0,1-15.74-15.74h0a15.74,15.74,0,0,1,15.74-15.74H705.56A38.86,38.86,0,0,0,705.56,447.66Z" style="fill:#f5f5f5"></path><g style="opacity:0.30000000000000004"><path d="M524.53,455.49H457.18a23.31,23.31,0,0,1-23.31-23.31h0a23.81,23.81,0,0,1,23.81-23.82h68.64C509.26,418.7,510.53,443.45,524.53,455.49Z"></path></g><path d="M685.48,433.38c0,.13-33.93.22-75.77.22s-75.77-.09-75.77-.22,33.91-.21,75.77-.21S685.48,433.26,685.48,433.38Z" style="fill:#263238"></path><path d="M701.07,440.38c0,.12-33.93.22-75.77.22s-75.77-.1-75.77-.22,33.92-.22,75.77-.22S701.07,440.26,701.07,440.38Z" style="fill:#263238"></path><path d="M696.47,426.89c0,.12-33.92.22-75.76.22s-75.78-.1-75.78-.22,33.92-.22,75.78-.22S696.47,426.77,696.47,426.89Z" style="fill:#263238"></path><path d="M516.23,452.18c0,.13-15.88.22-35.46.22s-35.47-.09-35.47-.22,15.87-.21,35.47-.21S516.23,452.06,516.23,452.18Z" style="fill:#263238"></path><path d="M516.23,412.27c0,.12-15.88.22-35.46.22s-35.47-.1-35.47-.22,15.87-.22,35.47-.22S516.23,412.15,516.23,412.27Z" style="fill:#263238"></path><path d="M493.51,381.55H569.9a.52.52,0,0,1,.52.52V408a.52.52,0,0,1-.52.52H493.51a11.16,11.16,0,0,1-11.16-11.16v-4.66a11.16,11.16,0,0,1,11.16-11.16Z" style="fill:#455a64"></path><path d="M552.54,381.55H705.12a2.63,2.63,0,0,1,2.63,2.63v1.1a2.63,2.63,0,0,1-2.63,2.63H552.54a1.2,1.2,0,0,1-1.2-1.2v-4A1.2,1.2,0,0,1,552.54,381.55Z" style="fill:#455a64"></path><path d="M552.54,402.17H705.12a2.63,2.63,0,0,1,2.63,2.63v1.1a2.63,2.63,0,0,1-2.63,2.63H552.54a1.2,1.2,0,0,1-1.2-1.2v-4A1.2,1.2,0,0,1,552.54,402.17Z" style="fill:#455a64"></path><path d="M703.09,402.17h-140A7.13,7.13,0,0,1,556,395h0a7.14,7.14,0,0,1,7.13-7.14h140Q697.68,395,703.09,402.17Z" style="fill:#f5f5f5"></path><g style="opacity:0.30000000000000004"><path d="M556,408.53H495.73a13.38,13.38,0,0,1-13.38-13.38h0a13.6,13.6,0,0,1,13.6-13.6h61.51C543.6,387.46,544.64,401.64,556,408.53Z"></path></g><path d="M686.77,393.91c0,.13-27.56.22-61.56.22s-61.56-.09-61.56-.22,27.56-.21,61.56-.21S686.77,393.79,686.77,393.91Z" style="fill:#263238"></path><path d="M699.44,397.76c0,.12-27.56.21-61.56.21s-61.56-.09-61.56-.21,27.56-.22,61.56-.22S699.44,397.63,699.44,397.76Z" style="fill:#263238"></path><path d="M549.26,405.85c0,.12-12.9.22-28.81.22s-28.82-.1-28.82-.22,12.9-.22,28.82-.22S549.26,405.73,549.26,405.85Z" style="fill:#263238"></path><path d="M549.26,384.72c0,.13-12.9.22-28.81.22s-28.82-.09-28.82-.22,12.9-.21,28.82-.21S549.26,384.6,549.26,384.72Z" style="fill:#263238"></path><path d="M705.91,381.55c0,.12-47.33.21-105.7.21s-105.71-.09-105.71-.21,47.32-.22,105.71-.22S705.91,381.43,705.91,381.55Z" style="fill:#263238"></path><polygon points="621.03 357.4 621.03 372.06 626.11 368.8 631.78 372.06 631.78 357.4 621.03 357.4" style="fill:#FFDE3E"></polygon></g><g id="freepik--book-1--inject-32"><path d="M327.55,69.24H276.82a4.29,4.29,0,0,1-4.29-4.5l1-21.49a4.3,4.3,0,0,1,4.29-4.09h50.72a4.3,4.3,0,0,1,4.3,4.5l-1,21.49A4.3,4.3,0,0,1,327.55,69.24Z" style="fill:#fafafa"></path><path d="M327.55,69.24a5.06,5.06,0,0,0,1.67-.39,4.29,4.29,0,0,0,2.53-3.9c.19-4.36.46-10.62.79-18.35,0-1.91.63-4.12-.79-5.73a4,4,0,0,0-2.63-1.46c-1-.08-2.21,0-3.33,0l-14.57,0-33.36,0a4.06,4.06,0,0,0-3.46,1.94,4.23,4.23,0,0,0-.59,2c0,.73-.07,1.45-.1,2.17-.14,2.88-.28,5.72-.41,8.5s-.27,5.53-.4,8.21c0,.67-.07,1.34-.1,2a4.94,4.94,0,0,0,.13,1.89,4.08,4.08,0,0,0,2.38,2.63,4.45,4.45,0,0,0,1.78.3h12.66l12.68,0,18.38.08,5,0,1.3,0,.45,0a2.56,2.56,0,0,1-.45,0l-1.3,0-5,0-18.38.08-12.68,0H277.09a4.79,4.79,0,0,1-2-.33,4.53,4.53,0,0,1-2.67-2.94,5.44,5.44,0,0,1-.15-2l.09-2q.19-4,.39-8.21c.13-2.79.27-5.63.4-8.51,0-.71.07-1.44.11-2.16a4.68,4.68,0,0,1,.65-2.2,4.59,4.59,0,0,1,3.91-2.19l33.36,0,14.57,0c1.15,0,2.23,0,3.38.05a4.51,4.51,0,0,1,3.89,4.65q-.07,1.52-.15,3c-.4,7.73-.73,14-1,18.35a4.37,4.37,0,0,1-1,2.71,4.19,4.19,0,0,1-1.7,1.27,4.45,4.45,0,0,1-1.27.31A3,3,0,0,1,327.55,69.24Z" style="fill:#263238"></path><polygon points="485.35 69.42 487.52 55.84 496.77 50.46 504.37 58.61 502.08 72.53 485.35 69.42" style="fill:#FFDE3E"></polygon><polygon points="528.12 83.76 516.89 330.18 335.84 325.04 325.07 306.22 344.54 77.2 513.04 66.05 528.12 83.76" style="fill:#e0e0e0"></polygon><g style="opacity:0.30000000000000004"><polygon points="516.89 330.18 501.81 312.47 513.04 66.05 528.12 83.76 516.89 330.18"></polygon></g><polygon points="513.04 66.05 501.81 312.47 325.07 306.22 338.44 63.56 513.04 66.05" style="fill:#fafafa"></polygon><path d="M513,66.05l-174.6-2.28.21-.2c-3.72,67.81-8.33,151.81-13.32,242.67l-.25-.28,2.92.1,173.82,6.17-.25.23C508.34,166.93,512.94,68.15,513,66.05c-.1,2.1-4.5,100.89-11,246.43v.23h-.24L328,306.58l-2.92-.1h-.26v-.26c5-90.86,9.67-174.85,13.42-242.66v-.2h.2Z" style="fill:#263238"></path><rect x="356.53" y="116.88" width="66.44" height="7.01" rx="2.35" transform="translate(775.8 252.13) rotate(-178.32)" style="fill:#e0e0e0"></rect><rect x="355.93" y="130.42" width="66.44" height="7.01" rx="2.35" transform="translate(774.21 279.2) rotate(-178.32)" style="fill:#e0e0e0"></rect><rect x="355.34" y="143.97" width="66.44" height="7.01" rx="2.35" transform="translate(772.62 306.27) rotate(-178.32)" style="fill:#e0e0e0"></rect><rect x="354.74" y="157.51" width="66.44" height="7.01" rx="2.35" transform="translate(771.04 333.33) rotate(-178.32)" style="fill:#e0e0e0"></rect><rect x="354.14" y="171.06" width="66.44" height="7.01" rx="2.35" transform="translate(769.45 360.4) rotate(-178.32)" style="fill:#e0e0e0"></rect><rect x="353.55" y="184.6" width="66.44" height="7.01" rx="2.35" transform="translate(767.86 387.47) rotate(-178.32)" style="fill:#e0e0e0"></rect><rect x="352.95" y="198.15" width="66.44" height="7.01" rx="2.35" transform="translate(766.28 414.54) rotate(-178.32)" style="fill:#e0e0e0"></rect><rect x="426.75" y="186.63" width="66.44" height="7.01" rx="2.35" transform="translate(914.18 393.67) rotate(-178.32)" style="fill:#e0e0e0"></rect><rect x="426.16" y="200.18" width="66.44" height="7.01" rx="2.35" transform="translate(912.59 420.74) rotate(-178.32)" style="fill:#e0e0e0"></rect><rect x="425.44" y="214.46" width="66.44" height="7.01" rx="2.35" transform="translate(910.74 449.28) rotate(-178.32)" style="fill:#e0e0e0"></rect><rect x="424.72" y="228.75" width="66.44" height="7.01" rx="2.35" transform="translate(908.88 477.82) rotate(-178.32)" style="fill:#e0e0e0"></rect><rect x="424" y="243.03" width="66.44" height="7.01" rx="2.35" transform="translate(907.03 506.36) rotate(-178.32)" style="fill:#e0e0e0"></rect><rect x="423.28" y="257.31" width="66.44" height="7.01" rx="2.35" transform="translate(905.17 534.9) rotate(-178.32)" style="fill:#e0e0e0"></rect><rect x="422.57" y="271.6" width="66.44" height="7.01" rx="2.35" transform="translate(903.32 563.44) rotate(-178.32)" style="fill:#e0e0e0"></rect><path d="M349.15,288.35l136.22,4a2.35,2.35,0,0,0,2.42-2.28l.06-2.31a2.34,2.34,0,0,0-2.27-2.41l-136.22-4a2.35,2.35,0,0,0-2.42,2.28l-.06,2.31A2.35,2.35,0,0,0,349.15,288.35Z" style="fill:#e0e0e0"></path><rect x="357.6" y="98.94" width="46.33" height="7.01" rx="2.35" transform="translate(758.36 216.01) rotate(-178.32)" style="fill:#e0e0e0"></rect><path d="M334.84,311.78l.86.05,2.53.11,9.78.37,36.29,1.28,122.61,4.14h.26l0-.26c.46-9.75.94-20,1.44-30.37,2.61-55.88,5-106.47,6.7-143.1.83-18.31,1.5-33.12,2-43.37.22-5.11.39-9.08.51-11.79.05-1.34.09-2.37.11-3.07s0-1,0-1,0,.36-.08,1-.1,1.72-.17,3.06c-.14,2.71-.35,6.68-.61,11.79-.51,10.25-1.24,25.06-2.14,43.36-1.76,36.63-4.18,87.21-6.86,143.1-.49,10.4-1,20.62-1.44,30.36l.28-.25-122.61-4L348,312.12l-9.78-.28-2.53-.06Z" style="fill:#263238"></path><path d="M349.2,319.15s.27,0,.81.06l2.39.11,9.24.37L396,321l116.5,4.27h.26l0-.26c.62-11.76,1.27-24,1.93-36.48,2.87-55.15,5.47-105.06,7.35-141.21.92-18.06,1.66-32.67,2.17-42.79.25-5,.44-9,.57-11.64.05-1.32.1-2.33.13-3s0-1,0-1,0,.35-.08,1-.1,1.71-.18,3c-.16,2.67-.38,6.59-.67,11.63-.55,10.11-1.35,24.73-2.34,42.78-1.92,36.14-4.58,86.06-7.51,141.2-.66,12.5-1.3,24.72-1.92,36.48l.27-.25L396,320.66l-34.35-1.15-9.24-.29-2.39-.06Z" style="fill:#263238"></path><polygon points="407.72 62.9 410.39 60.29 442.22 60.45 443.76 63.36 407.72 62.9" style="fill:#263238"></polygon><rect x="418.06" y="52.69" width="15.17" height="36.04" transform="translate(501.71 -354.01) rotate(90.72)" style="fill:#263238"></rect><rect x="424" y="59.25" width="3.03" height="38.54" rx="1.25" transform="translate(509.4 -345.97) rotate(90.72)" style="fill:#263238"></rect><path d="M433.54,74.7h0l-15.85-.2a1.4,1.4,0,0,1-1.14-.61,1.43,1.43,0,0,1-.16-1.27L421,60.06A8.28,8.28,0,1,1,431.8,47.53a8.28,8.28,0,0,1-1.1,12.69l4.16,12.64a1.4,1.4,0,0,1-.2,1.27A1.38,1.38,0,0,1,433.54,74.7ZM426,46.14h-.19a7.4,7.4,0,0,0-7.09,7.39,7.29,7.29,0,0,0,3.23,5.93l.32.22L417.31,73a.4.4,0,0,0,.05.37.37.37,0,0,0,.32.17l15.85.2a.41.41,0,0,0,.33-.16.42.42,0,0,0,.05-.36L429.5,59.8l.34-.21A7.28,7.28,0,0,0,426,46.14Z" style="fill:#455a64"></path><path d="M443.32,77.23l-.37,0-1,0-3.81-.08-12.57-.21L413,76.76h-4.85a1.77,1.77,0,0,0-.36,0l.36,0,1,.05L413,77c3.22.08,7.66.16,12.57.23s9.36.11,12.58.12c1.61,0,2.91,0,3.81,0,.45,0,.8,0,1,0A1.26,1.26,0,0,0,443.32,77.23Z" style="fill:#455a64"></path><path d="M443.83,63.05a1.48,1.48,0,0,0-.36,0l-1,0-3.81-.08-12.57-.2-12.57-.15h-4.85a1.65,1.65,0,0,0-.36,0l.36,0,1,0,3.81.1c3.22.08,7.67.16,12.58.23s9.35.11,12.57.12c1.61,0,2.91,0,3.81,0,.45,0,.8,0,1,0A1.65,1.65,0,0,0,443.83,63.05Z" style="fill:#455a64"></path><rect x="352.32" y="215.2" width="61.41" height="55.88" rx="8.92" transform="translate(7.29 -11.12) rotate(1.68)" style="fill:#ebebeb"></rect><path d="M351.89,257.16a1.49,1.49,0,0,1,.66-1.19l20.1-13.49a4.16,4.16,0,0,1,5.31.1,1.51,1.51,0,0,0,.26.18l9.11,4.68a1.52,1.52,0,0,0,1.74-.26l13.79-13.5a4.3,4.3,0,0,1,6.21.53l4.42,5.56a1.48,1.48,0,0,1,.33.95l-.21,22.45a8.47,8.47,0,0,1-8.75,8.39l-44.92-1.42a8.48,8.48,0,0,1-8.21-8.78Z" style="fill:#e0e0e0"></path><circle cx="375.43" cy="229.88" r="6.14" transform="matrix(0.94, -0.35, 0.35, 0.94, -56.81, 146.45)" style="fill:#e0e0e0"></circle><rect x="431.64" y="120.62" width="61.41" height="55.88" rx="8.92" transform="matrix(1, 0.03, -0.03, 1, 4.55, -13.48)" style="fill:#ebebeb"></rect><path d="M431.24,161.81,452,147.9a4.15,4.15,0,0,1,5.43.21l10.21,5.24,14.58-14.25a4.28,4.28,0,0,1,6.2.53l4.76,6-.2,21.5a10,10,0,0,1-10.26,9.84l-42-1.33a9.94,9.94,0,0,1-9.61-10.3Z" style="fill:#e0e0e0"></path><circle cx="454.75" cy="135.3" r="6.14" style="fill:#e0e0e0"></circle><path d="M361.21,152.58a2.89,2.89,0,0,1-.81-.23,4.48,4.48,0,0,1-1.83-1.55,5.22,5.22,0,0,1-.89-3.67,7.27,7.27,0,0,1,2.43-4.38,12.74,12.74,0,0,1,5.46-2.69,29.8,29.8,0,0,1,6.94-.89,30.53,30.53,0,0,1,15.39,3.9,11.34,11.34,0,0,1,3.26,2.74,6.83,6.83,0,0,1,1.46,3.89,5.21,5.21,0,0,1-1.46,3.74,8.75,8.75,0,0,1-3.25,2,21.79,21.79,0,0,1-6.9,1.11,38.07,38.07,0,0,1-6.08-.26,37.48,37.48,0,0,1-8.54-2.06c-1-.36-1.72-.67-2.21-.91a6.43,6.43,0,0,1-.74-.37,4.94,4.94,0,0,1,.78.28c.51.2,1.26.48,2.24.81A41,41,0,0,0,375,156a40.26,40.26,0,0,0,6,.19,21.71,21.71,0,0,0,6.75-1.13,8.08,8.08,0,0,0,3.06-1.93,4.67,4.67,0,0,0,1.31-3.38,6.21,6.21,0,0,0-1.36-3.59,10.7,10.7,0,0,0-3.12-2.61,30.38,30.38,0,0,0-15.12-3.87,30.06,30.06,0,0,0-6.83.83,12.56,12.56,0,0,0-5.33,2.55,7,7,0,0,0-2.38,4.14,5,5,0,0,0,.77,3.52,4.6,4.6,0,0,0,1.71,1.57C360.93,152.49,361.22,152.55,361.21,152.58Z" style="fill:#263238"></path><path d="M387.06,292.27a2.61,2.61,0,0,1-.81-.22,4.48,4.48,0,0,1-1.83-1.55,5.23,5.23,0,0,1-.9-3.67,7.35,7.35,0,0,1,2.43-4.38,12.84,12.84,0,0,1,5.47-2.69,29.71,29.71,0,0,1,6.93-.89,30.41,30.41,0,0,1,15.39,3.9,11.22,11.22,0,0,1,3.27,2.74,6.81,6.81,0,0,1,1.46,3.89,5.17,5.17,0,0,1-1.46,3.73,8.5,8.5,0,0,1-3.25,2,22.11,22.11,0,0,1-6.91,1.12,40.37,40.37,0,0,1-6.07-.26,38.58,38.58,0,0,1-8.54-2.06c-1-.36-1.72-.68-2.21-.91a4.69,4.69,0,0,1-.75-.38,5.81,5.81,0,0,1,.79.28c.5.2,1.25.49,2.23.82a40.74,40.74,0,0,0,8.52,1.88,40.15,40.15,0,0,0,6,.2,21.73,21.73,0,0,0,6.75-1.14,8.16,8.16,0,0,0,3.06-1.93,4.69,4.69,0,0,0,1.31-3.38,6.38,6.38,0,0,0-1.36-3.59,10.83,10.83,0,0,0-3.12-2.6,30.52,30.52,0,0,0-22-3,12.44,12.44,0,0,0-5.33,2.54,7.09,7.09,0,0,0-2.39,4.15,5,5,0,0,0,.78,3.52,4.53,4.53,0,0,0,1.7,1.56C386.78,292.19,387.06,292.24,387.06,292.27Z" style="fill:#263238"></path><path d="M357.05,106.83a2.89,2.89,0,0,1-.8-.23,4.4,4.4,0,0,1-1.83-1.55,5.16,5.16,0,0,1-.9-3.66A7.37,7.37,0,0,1,356,97a12.77,12.77,0,0,1,5.47-2.68,30.24,30.24,0,0,1,6.93-.9,30.61,30.61,0,0,1,15.39,3.9,11.21,11.21,0,0,1,3.26,2.74,6.77,6.77,0,0,1,1.47,3.89,5.19,5.19,0,0,1-1.46,3.74,8.62,8.62,0,0,1-3.25,2,21.85,21.85,0,0,1-6.91,1.11,38.4,38.4,0,0,1-14.62-2.32c-1-.36-1.71-.67-2.21-.91a6.43,6.43,0,0,1-.74-.37,4.44,4.44,0,0,1,.79.28c.5.2,1.25.48,2.23.81a41.29,41.29,0,0,0,8.52,1.89,38.84,38.84,0,0,0,6,.19,21.77,21.77,0,0,0,6.76-1.13,8.12,8.12,0,0,0,3.05-1.93A4.72,4.72,0,0,0,388,104a6.32,6.32,0,0,0-1.37-3.59,10.69,10.69,0,0,0-3.11-2.61,30.55,30.55,0,0,0-22-3,12.58,12.58,0,0,0-5.32,2.55,7,7,0,0,0-2.39,4.14,5.06,5.06,0,0,0,.77,3.52,4.68,4.68,0,0,0,1.71,1.57C356.78,106.74,357.06,106.8,357.05,106.83Z" style="fill:#263238"></path><polygon points="510.5 247.14 524.25 247.48 530.81 255.93 523.75 264.55 509.64 264.13 510.5 247.14" style="fill:#FFDE3E"></polygon><polygon points="511.8 223.02 525.55 223.36 532.11 231.81 525.05 240.43 510.94 240.01 511.8 223.02" style="fill:#455a64"></polygon><rect x="280.44" y="49.61" width="44.52" height="1.25" rx="0.52" style="fill:#e0e0e0"></rect><rect x="280.44" y="53.58" width="44.52" height="1.25" rx="0.52" style="fill:#e0e0e0"></rect><rect x="280.44" y="57.54" width="44.52" height="1.25" rx="0.52" style="fill:#e0e0e0"></rect><path d="M333,53.31c.11-.08,7,8.88,15.45,20s15.16,20.25,15,20.33-7-8.87-15.45-20S332.87,53.4,333,53.31Z" style="fill:#263238"></path><circle cx="332.73" cy="52.51" r="1.69" style="fill:#263238"></circle><path d="M379.84,395.73H329.12a4.3,4.3,0,0,1-4.3-4.5l1-21.49a4.3,4.3,0,0,1,4.3-4.09h50.72a4.29,4.29,0,0,1,4.29,4.5l-1,21.49A4.3,4.3,0,0,1,379.84,395.73Z" style="fill:#fafafa"></path><path d="M379.84,395.73a5,5,0,0,0,1.68-.4,4.26,4.26,0,0,0,2.52-3.89c.19-4.36.46-10.63.8-18.36,0-1.9.62-4.11-.79-5.72a4.07,4.07,0,0,0-2.63-1.47c-1.05-.07-2.21,0-3.34,0l-14.56,0-33.37,0a4,4,0,0,0-3.45,1.94,4.08,4.08,0,0,0-.59,1.95c0,.72-.07,1.45-.1,2.17q-.21,4.32-.41,8.5t-.4,8.21c0,.67-.07,1.34-.1,2a4.88,4.88,0,0,0,.13,1.88,4.07,4.07,0,0,0,2.38,2.64,4.42,4.42,0,0,0,1.78.29H335l7.07,0,12.69,0,18.37.08,5,.05,1.3,0a2.12,2.12,0,0,1,.44,0l-.44,0-1.3,0-5,.05-18.37.09L342,396H329.39a4.93,4.93,0,0,1-2-.33,4.55,4.55,0,0,1-2.67-2.94,5.46,5.46,0,0,1-.16-2c0-.67.07-1.33.1-2,.13-2.69.25-5.43.39-8.21s.26-5.63.4-8.51c0-.72.07-1.44.1-2.17a4.74,4.74,0,0,1,.66-2.19,4.6,4.6,0,0,1,3.9-2.2l33.37,0,14.56,0c1.16,0,2.24,0,3.39.05a4.49,4.49,0,0,1,2.89,1.62,4.59,4.59,0,0,1,1,3q-.08,1.51-.15,3c-.41,7.73-.74,14-1,18.35a4.43,4.43,0,0,1-1,2.71,4.33,4.33,0,0,1-1.7,1.27,4.82,4.82,0,0,1-1.27.31Z" style="fill:#263238"></path><rect x="332.73" y="376.1" width="44.52" height="1.25" rx="0.52" style="fill:#e0e0e0"></rect><rect x="332.73" y="380.06" width="44.52" height="1.25" rx="0.52" style="fill:#e0e0e0"></rect><rect x="332.73" y="384.03" width="44.52" height="1.25" rx="0.52" style="fill:#e0e0e0"></rect><path d="M399,295.22c.13.07-8,15.89-18.11,35.33s-18.45,35.16-18.58,35.1,8-15.89,18.12-35.34S398.91,295.16,399,295.22Z" style="fill:#263238"></path><path d="M364.05,365.65a1.7,1.7,0,1,1-1.7-1.7A1.7,1.7,0,0,1,364.05,365.65Z" style="fill:#263238"></path></g><g id="freepik--speech-bubble-3--inject-32"><path d="M688.27,106.75H642.92a17.39,17.39,0,0,0-17.38,17.39h0a17.38,17.38,0,0,0,16.38,17.34c1.37,2.36,2.73,4.73,4.1,7.1l5.13-7.05h37.12a17.4,17.4,0,0,0,17.39-17.39h0A17.4,17.4,0,0,0,688.27,106.75Z" style="fill:#fff"></path><path d="M688.27,106.75h.46l1.36,0a18.39,18.39,0,0,1,5.08,1.28,18,18,0,0,1,6.66,5,19,19,0,0,1,2.69,4.5,17.61,17.61,0,0,1-3.14,18.3,17.91,17.91,0,0,1-6.13,4.46,18.84,18.84,0,0,1-7.94,1.46l-36.16,0,.21-.1-5.13,7-.23.33-.2-.35-1.67-2.89-2.44-4.21.21.12a19,19,0,0,1-5.08-1.06,18.61,18.61,0,0,1-4.49-2.45,17.59,17.59,0,0,1-2.7-25.63,17.37,17.37,0,0,1,7.14-4.93c.34-.12.66-.25,1-.36l1-.26a16,16,0,0,1,2.05-.37c.68-.09,1.36-.08,2-.13h2l14.61,0,21.08.09,5.72,0,1.48,0,.51,0-.51,0-1.48,0-5.72,0-21.08.08-14.61,0h-2c-.66,0-1.33,0-2,.13a17.54,17.54,0,0,0-2,.37l-1,.26c-.33.1-.65.23-1,.35A16.92,16.92,0,0,0,630,112.9a17.11,17.11,0,0,0,2.65,24.91,18.42,18.42,0,0,0,4.36,2.38,19.15,19.15,0,0,0,4.93,1h.14l.07.12,2.44,4.21,1.67,2.89-.44,0,5.13-7.06.08-.1h.13l36.16,0a18.23,18.23,0,0,0,7.76-1.4,17.55,17.55,0,0,0,6-4.34,17.3,17.3,0,0,0,3.15-17.9,18.39,18.39,0,0,0-2.62-4.45,18,18,0,0,0-6.51-5A19.49,19.49,0,0,0,688.27,106.75Z" style="fill:#263238"></path><polygon points="645.67 118.71 647.3 122 650.93 122.53 648.3 125.09 648.92 128.71 645.67 127 642.42 128.71 643.04 125.09 640.41 122.53 644.04 122 645.67 118.71" style="fill:#FFDE3E"></polygon><polygon points="659.47 118.71 661.09 122 664.73 122.53 662.1 125.09 662.72 128.71 659.47 127 656.21 128.71 656.83 125.09 654.2 122.53 657.84 122 659.47 118.71" style="fill:#FFDE3E"></polygon><polygon points="673.26 118.71 674.89 122 678.52 122.53 675.89 125.09 676.51 128.71 673.26 127 670.01 128.71 670.63 125.09 668 122.53 671.63 122 673.26 118.71" style="fill:#FFDE3E"></polygon><polygon points="687.05 118.71 688.68 122 692.32 122.53 689.69 125.09 690.31 128.71 687.05 127 683.8 128.71 684.42 125.09 681.79 122.53 685.43 122 687.05 118.71" style="fill:#FFDE3E"></polygon></g><g id="freepik--speech-bubble-2--inject-32"><path d="M150.7,162.53l7.4.71a23.9,23.9,0,1,0,25.2-37.81,23.89,23.89,0,0,0-29.2,30.23h0Z" style="fill:#fff"></path><path d="M150.7,162.53s.09-.16.24-.46.39-.76.68-1.32c.59-1.17,1.45-2.86,2.57-5.05H154a.1.1,0,0,0,.15,0,.09.09,0,0,0,0-.12,24,24,0,0,1-.63-11.63,23.43,23.43,0,0,1,2.65-7.11,23.64,23.64,0,0,1,41.47.42l.67,1.29.55,1.34a26.53,26.53,0,0,1,.89,2.74,24.41,24.41,0,0,1,.7,5.61,23.71,23.71,0,0,1-33.06,21.93,23.73,23.73,0,0,1-9.25-7.05l-.08,0-5.48-.46-1.43-.11c-.32,0-.5,0-.5,0l.45.06,1.4.16,5.54.6-.07,0a23.71,23.71,0,0,0,9.28,7.23,24.19,24.19,0,0,0,31.27-11.46,24.54,24.54,0,0,0,1.73-16.53,25.23,25.23,0,0,0-.91-2.79l-.56-1.38-.68-1.32A24.11,24.11,0,0,0,161.41,130a23.85,23.85,0,0,0-5.53,6.73,23.35,23.35,0,0,0-2.64,7.23,23.94,23.94,0,0,0,.75,11.76l.2-.09h0a.11.11,0,0,0-.15,0,.1.1,0,0,0,0,0l-2.48,5.18c-.27.56-.47,1-.62,1.31A3,3,0,0,0,150.7,162.53Z" style="fill:#263238"></path><path d="M178,157.75l0,2.68-2.4,0,0-2.61a11.44,11.44,0,0,1-5.95-2l1.36-2.91a9.75,9.75,0,0,0,4.63,1.76l.06-4c-2.66-.68-5.62-1.61-5.58-5,0-2.55,1.91-4.7,5.71-5.09l0-2.66,2.4,0,0,2.62a10.84,10.84,0,0,1,4.85,1.53L181.81,145a9.8,9.8,0,0,0-3.65-1.3l-.06,4.08c2.66.66,5.57,1.59,5.53,5C183.6,155.21,181.74,157.34,178,157.75Zm-2.26-10.64,0-3.41c-1.28.28-1.79,1-1.8,1.76S174.66,146.76,175.71,147.11Zm4,5.84c0-.84-.68-1.31-1.7-1.68l-.05,3.31C179.22,154.33,179.75,153.72,179.76,153Z" style="fill:#e0e0e0"></path></g><g id="freepik--speech-bubble-1--inject-32"><path d="M74.18,150.39l-1.94-7.19a24,24,0,1,0-5.69,6.42h0Z" style="fill:#fff"></path><path d="M74.18,150.39l-.52-.07-1.47-.17-5.63-.63.08.18h0a.11.11,0,0,0,0-.16.1.1,0,0,0-.13,0,24.07,24.07,0,0,1-10.67,4.68,24,24,0,0,1-15.67-2.78,23.79,23.79,0,0,1-11.42-15.38A23.72,23.72,0,0,1,34,115.28l1-1.08,1.06-1a25.7,25.7,0,0,1,2.25-1.8,24,24,0,0,1,15.74-4.13,23.78,23.78,0,0,1,18.1,35.86v.08c.64,2.29,1.15,4.06,1.49,5.29.17.59.3,1,.4,1.38s.15.49.15.49a4.06,4.06,0,0,0-.1-.45l-.35-1.37-1.38-5.4v.09A24.1,24.1,0,0,0,54.09,106.8,24.45,24.45,0,0,0,38,111a25.15,25.15,0,0,0-2.29,1.83l-1.09,1-1,1.1a24.1,24.1,0,0,0,6.31,36.88,23.9,23.9,0,0,0,26.68-2.11l-.15-.15h0a.1.1,0,0,0,0,.15s0,0,.06,0l5.72.5,1.45.12Z" style="fill:#263238"></path><polygon points="51.33 142.39 38.76 133.99 41.7 129.6 50.12 135.24 60.61 121.36 64.82 124.54 51.33 142.39" style="fill:#FFDE3E"></polygon></g><g id="freepik--character-2--inject-32"><path d="M232.75,187.27s-7.36,41-7,44.79,2.32,9.92,6.76,11a19.85,19.85,0,0,0,8.53,0l-5.33-50.3Z" style="fill:#ffbf9d"></path><path d="M254.25,152.29,253.73,110c-.47-10.52,5.26-19.57,15.8-19.75l1,0a18.84,18.84,0,0,1,18.05,18.08c.35,9.12.63,19.21.37,24.08-.54,10.1-10.71,11.25-10.71,11.25s-.06,6.15-.06,9.11L270,164.05v.6Z" style="fill:#ffbf9d"></path><path d="M278.21,143.66a24.43,24.43,0,0,1-13-4.43s2.85,7.72,13,7.23Z" style="fill:#ff9a6c"></path><path d="M285.33,117a1.45,1.45,0,0,1-1.45,1.4,1.37,1.37,0,0,1-1.43-1.36,1.44,1.44,0,0,1,1.44-1.4A1.39,1.39,0,0,1,285.33,117Z" style="fill:#263238"></path><path d="M286.21,112.7c-.18.18-1.24-.67-2.79-.73s-2.73.67-2.89.47.12-.42.63-.76a3.91,3.91,0,0,1,2.32-.61,3.77,3.77,0,0,1,2.22.82C286.16,112.27,286.31,112.62,286.21,112.7Z" style="fill:#263238"></path><path d="M271.47,117a1.45,1.45,0,0,1-1.45,1.4,1.39,1.39,0,0,1-1.44-1.36,1.45,1.45,0,0,1,1.45-1.4A1.39,1.39,0,0,1,271.47,117Z" style="fill:#263238"></path><path d="M271,112.43c-.19.18-1.25-.67-2.8-.73s-2.73.67-2.89.47.12-.42.63-.76a4,4,0,0,1,2.32-.61,3.88,3.88,0,0,1,2.22.82C270.93,112,271.08,112.35,271,112.43Z" style="fill:#263238"></path><path d="M276.06,124.59a10,10,0,0,1,2.54-.35c.4,0,.78-.09.85-.36a2,2,0,0,0-.21-1.18c-.34-1-.68-2-1.05-3.07-1.45-4.36-2.48-7.95-2.31-8s1.5,3.43,2.95,7.79l1,3.09a2.33,2.33,0,0,1,.14,1.56,1,1,0,0,1-.68.55,2.42,2.42,0,0,1-.67.07A10.09,10.09,0,0,1,276.06,124.59Z" style="fill:#263238"></path><path d="M271.69,107.6c-.23.39-1.72-.09-3.55-.21s-3.37.11-3.54-.31c-.07-.2.25-.54.91-.84a6,6,0,0,1,2.75-.42,5.84,5.84,0,0,1,2.65.82C271.52,107,271.79,107.41,271.69,107.6Z" style="fill:#263238"></path><path d="M286.47,108.14c-.33.34-1.58-.06-3.1-.11s-2.82.16-3.1-.22c-.13-.18.08-.53.65-.85a5.06,5.06,0,0,1,2.55-.51,4.83,4.83,0,0,1,2.46.78C286.45,107.6,286.62,108,286.47,108.14Z" style="fill:#263238"></path><path d="M254.25,117.48c-.17-.09-6.86-2.34-6.92,4.57s6.89,5.55,6.9,5.35S254.25,117.48,254.25,117.48Z" style="fill:#ffbf9d"></path><path d="M252.15,124.77s-.12.08-.33.17a1.19,1.19,0,0,1-.9,0,3,3,0,0,1-1.35-2.69,3.84,3.84,0,0,1,.35-1.72,1.4,1.4,0,0,1,.91-.91.62.62,0,0,1,.71.33c.09.2.05.33.08.35s.15-.12.1-.4a.78.78,0,0,0-.27-.44.86.86,0,0,0-.66-.18,1.69,1.69,0,0,0-1.27,1.06,4.09,4.09,0,0,0-.44,1.92c0,1.4.74,2.71,1.73,3a1.28,1.28,0,0,0,1.11-.17C252.13,124.93,252.17,124.78,252.15,124.77Z" style="fill:#ff9a6c"></path><path d="M271.18,125.55c.24,0,.25,1.57,1.62,2.69s3.05.94,3.06,1.16-.37.31-1.09.34a4,4,0,0,1-2.56-.88A3.48,3.48,0,0,1,271,126.6C270.9,125.93,271.08,125.54,271.18,125.55Z" style="fill:#263238"></path><path d="M302.5,99.23a1.65,1.65,0,0,0-.76-1,5,5,0,0,0-2.58-.45,14.67,14.67,0,0,1-6.31-1.66,7.14,7.14,0,0,0,1.88-1.29,4.32,4.32,0,0,0,1.29-4.3,1,1,0,0,0-.53-.67c-.45-.14-.85.3-1.16.64A3.73,3.73,0,0,1,290.79,92a6.14,6.14,0,0,1-2.62-.8l-.08-.1L287,90h0c-2.57-2.61-4.79-4.42-7.08-5.38a23.61,23.61,0,0,0-12.53-1.13c-3.53.89-6.72,3.71-7.25,7.31-1.95-1.69-4.92-1.71-7.33-.78l-.06,0c-2.69.92-4.24,3.73-5.07,6.45l-.12.45a10.63,10.63,0,0,1-3.64,3.48c-.26.15-.56.33-.6.63a.89.89,0,0,0,.45.72,5.47,5.47,0,0,0,2.16.92,12,12,0,0,1-.91,1.87c-.31.51-.67,1.12-.42,1.65a1.13,1.13,0,0,0,1.18.53,3.26,3.26,0,0,0,1.25-.55c-.3.71-.61,1.43-.92,2.14a6.41,6.41,0,0,0,2.92-.16c.54,2.56.91,7.29,1.55,9,1.83,0,2.28-.15,3.2.17,1.2.41.72,2.53,2.28,1.94.8-.29,2-3.29,2.32-4.09a39.24,39.24,0,0,0,1.9-16.69,12.77,12.77,0,0,1,3.95-2.79l-.12.11c2.84-.95,6.05-1.88,8.72-.52,2.06,1,3.26,3.23,4.8,5a14.5,14.5,0,0,0,10.62,5.31c.36,3.06.42,8,.54,10.9l2.5-5.67v0a10.57,10.57,0,0,0,.52-1l.06-.1h0a16.27,16.27,0,0,1,.82-1.61l0,0a1.78,1.78,0,0,0,2.62-2.35,3.69,3.69,0,0,0-.85-.87,2.83,2.83,0,0,0,2.68.72,2.21,2.21,0,0,0,1.58-2.17,1.88,1.88,0,0,0-1.1-1.52,6.33,6.33,0,0,0,3.62-.75C302,100.79,302.73,100.13,302.5,99.23Z" style="fill:#263238"></path><path d="M263.35,92a9.42,9.42,0,0,0-1,.92,7.21,7.21,0,0,0-1.6,3.34,13.48,13.48,0,0,0-.28,2.57c0,.93.05,1.93.1,3a26.06,26.06,0,0,1,0,3.32,10.54,10.54,0,0,1-.25,1.75,3.59,3.59,0,0,1-.73,1.69,1.51,1.51,0,0,1-1.43.46,2.2,2.2,0,0,1-1.28-.74,5.21,5.21,0,0,1-.94-2.58l.21,0a8.31,8.31,0,0,1-1.26,2.1,3,3,0,0,1-2,1,1.94,1.94,0,0,1-1-.19,1.74,1.74,0,0,1-.9-1.61,1.26,1.26,0,0,1,.33-.78l.11.1a6.42,6.42,0,0,1-2.2,1.6,7,7,0,0,1-.67.26.88.88,0,0,1-.25,0l.23-.09a6.79,6.79,0,0,0,.66-.29,6.52,6.52,0,0,0,2.12-1.63l.1.1a1.3,1.3,0,0,0-.08,1.5,1.47,1.47,0,0,0,.63.63,1.77,1.77,0,0,0,.95.16,2.81,2.81,0,0,0,1.84-1,8.45,8.45,0,0,0,1.2-2.06l.15-.32.07.35a5,5,0,0,0,.9,2.47,2,2,0,0,0,1.14.66,1.3,1.3,0,0,0,1.22-.39,3.51,3.51,0,0,0,.68-1.58,12.78,12.78,0,0,0,.24-1.71,27.65,27.65,0,0,0,0-3.29c-.06-1.06-.11-2.06-.09-3a12.75,12.75,0,0,1,.32-2.6,7.13,7.13,0,0,1,1.69-3.37A4.13,4.13,0,0,1,263.35,92Z" style="fill:#455a64"></path><path d="M294.54,102.21l-.08.06-.26.19a4.19,4.19,0,0,1-.43.27,5.93,5.93,0,0,1-.62.31,8.93,8.93,0,0,1-4.34.73,11.45,11.45,0,0,1-6.08-2.32,20.07,20.07,0,0,1-5.18-6.11c-.72-1.23-1.3-2.5-1.95-3.66a13.34,13.34,0,0,0-2.23-3.11,6.93,6.93,0,0,0-2.89-1.8,5.18,5.18,0,0,0-1.54-.2,5.34,5.34,0,0,0-1.41.26,5.83,5.83,0,0,0-2.12,1.24,5.93,5.93,0,0,0-1.16,1.47,7.48,7.48,0,0,0-.54,1.51.82.82,0,0,1,0-.1c0-.09,0-.19,0-.31a4.75,4.75,0,0,1,.4-1.14A5.58,5.58,0,0,1,265.32,88a5.86,5.86,0,0,1,2.16-1.31,5.65,5.65,0,0,1,1.45-.28,5.19,5.19,0,0,1,1.6.19,7.06,7.06,0,0,1,3,1.84,13.43,13.43,0,0,1,2.27,3.15c.66,1.17,1.24,2.43,2,3.65a19.89,19.89,0,0,0,5.1,6,11.44,11.44,0,0,0,6,2.34,9.2,9.2,0,0,0,4.29-.65A14.63,14.63,0,0,0,294.54,102.21Z" style="fill:#455a64"></path><path d="M295.51,97.77a1.78,1.78,0,0,1-.36.25,7.24,7.24,0,0,1-1.08.53,10.19,10.19,0,0,1-1.71.54,12,12,0,0,1-2.18.27,11.63,11.63,0,0,1-2.19-.18,10.17,10.17,0,0,1-1.73-.47,6.31,6.31,0,0,1-1.1-.49c-.25-.13-.38-.21-.37-.23s.57.26,1.53.56A12.59,12.59,0,0,0,288,99a13.07,13.07,0,0,0,2.14.15,12.6,12.6,0,0,0,2.14-.24,13.32,13.32,0,0,0,1.7-.48C295,98.05,295.49,97.73,295.51,97.77Z" style="fill:#455a64"></path><path d="M269.05,419l-1,22.85s22.89,8.69,23.12,12.93l-44.38-.34.09-35.68Z" style="fill:#455a64"></path><path d="M254.34,439.85a1.82,1.82,0,0,0-1.27,2.06,1.74,1.74,0,0,0,2,1.28,1.92,1.92,0,0,0,1.33-2.19,1.8,1.8,0,0,0-2.26-1.09" style="fill:#e0e0e0"></path><g style="opacity:0.6000000000000001"><path d="M246.79,454.47l.15-3.6,42.5,1.68s2,.87,1.73,2.26Z" style="fill:#fff"></path></g><path d="M268.77,441.66c0,.22-1.09.31-2.17,1s-1.64,1.59-1.84,1.5.13-1.33,1.44-2.14S268.82,441.46,268.77,441.66Z" style="fill:#263238"></path><path d="M273.41,443.62c0,.21-.89.57-1.64,1.49s-1,1.87-1.18,1.86-.34-1.23.61-2.35S273.41,443.42,273.41,443.62Z" style="fill:#263238"></path><path d="M276,449.22c-.2,0-.49-1.05.08-2.23s1.58-1.64,1.67-1.46-.54.81-1,1.79S276.23,449.2,276,449.22Z" style="fill:#263238"></path><path d="M268.42,436.43c-.09.19-1.09-.11-2.31,0s-2.18.45-2.3.27.82-1,2.26-1S268.53,436.26,268.42,436.43Z" style="fill:#263238"></path><path d="M269,436.17a36.7,36.7,0,0,1,.06,5.5l-.18-.27c2.59,1,6,2.31,9.7,4a52.38,52.38,0,0,1,9.84,5.66,10.6,10.6,0,0,1,2.43,2.48c.46.72.4,1.26.33,1.23a3.13,3.13,0,0,0-.57-1.06,12,12,0,0,0-2.51-2.23,65.11,65.11,0,0,0-9.83-5.41c-3.64-1.71-7.05-3.1-9.59-4.19l-.19-.08v-.19A36.45,36.45,0,0,1,269,436.17Z" style="fill:#263238"></path><path d="M240.34,259.65v20.71l8.18,66.15s-2.59,31-4.19,48.53c-1.38,15.21.88,41.69.88,41.69h24.23l8.66-88.32,5.38-55.08,9.76-32.63Z" style="fill:#263238"></path><path d="M283.29,415.06,277,437s20.21,13.83,19.43,18l-43.06-10.77,8.48-34.66Z" style="fill:#455a64"></path><path d="M264.1,431.84a1.82,1.82,0,0,0-1.72,1.71,1.73,1.73,0,0,0,1.67,1.71,1.9,1.9,0,0,0,1.81-1.81,1.79,1.79,0,0,0-1.93-1.59" style="fill:#e0e0e0"></path><g style="opacity:0.6000000000000001"><path d="M253.32,444.28l1-3.46,40.92,11.62s1.71,1.31,1.15,2.61Z" style="fill:#fff"></path></g><path d="M277.7,437c-.06.2-1.13,0-2.34.45s-2,1.17-2.15,1,.45-1.27,1.91-1.75S277.79,436.81,277.7,437Z" style="fill:#263238"></path><path d="M281.75,440c0,.22-1,.35-1.94,1.06s-1.38,1.6-1.59,1.54,0-1.29,1.14-2.15S281.79,439.79,281.75,440Z" style="fill:#263238"></path><path d="M283,446c-.2,0-.23-1.13.6-2.14s1.92-1.23,2-1-.72.66-1.39,1.5S283.18,446.07,283,446Z" style="fill:#263238"></path><path d="M278.59,431.83c-.14.17-1-.37-2.24-.58s-2.23-.08-2.29-.28,1-.74,2.43-.46S278.73,431.69,278.59,431.83Z" style="fill:#263238"></path><polygon points="302.6 261.06 303.71 272.33 302.37 354.13 283.2 419.85 278.55 435.79 253.8 431.13 272.88 261.08 302.6 261.06" style="fill:#263238"></polygon><path d="M301.85,355.85s0,.13-.09.39-.18.64-.31,1.13c-.29,1-.71,2.49-1.25,4.4l-4.75,16.52c-4.1,14.15-9.9,34.14-16.69,57.56l-.06.19-.19,0-24.75-4.65-.22,0,0-.23c1.26-6.67,2.58-13.63,3.93-20.74,4-21,7.76-40.89,11.06-58.23v.07c-4.1-25.73-7.37-46.24-9.25-58v0l-4.13-7.52-1-1.95c-.24-.43-.35-.66-.35-.66s.14.21.39.64l1.1,1.92,4.21,7.48h0v0c1.92,11.77,5.27,32.27,9.47,58v.07c-3.27,17.35-7,37.2-11,58.25-1.34,7.1-2.67,14.07-3.93,20.74l-.18-.27,24.74,4.67-.25.15c6.86-23.39,12.71-43.36,16.85-57.5,2.08-7.05,3.74-12.64,4.87-16.49.57-1.9,1-3.37,1.32-4.38l.34-1.12C301.8,356,301.85,355.85,301.85,355.85Z" style="fill:#455a64"></path><path d="M298.15,267.77a7.31,7.31,0,0,1-1.34,2,18.59,18.59,0,0,1-4.4,3.75,17.86,17.86,0,0,1-5.35,2.18,7.45,7.45,0,0,1-2.37.29,22.27,22.27,0,0,0,13.46-8.2Z" style="fill:#455a64"></path><path d="M350.89,144.33a1,1,0,0,0-.24-1.44.48.48,0,0,0-.37-.11c-.49.08-1.8,1-2.8,1.05s-2.71-.29-3.72.64-3.45,6-3.76,7.15-1.4,10.86-1.4,10.86Z" style="fill:#ffbf9d"></path><path d="M355.13,143.05c-.05.06-12,5.34-17.26,7.66a1.77,1.77,0,0,0-.51,2.92h0a1.86,1.86,0,0,0,2.13.34l17.16-8.36,1.42-2.15Z" style="fill:#263238"></path><path d="M342.47,153.81l3.81-2.81,5-7.3s2.06-1.23,3.13-.45,1.42,1.66.92,2.66c0,0,2.85.68,3.05,1.63a11,11,0,0,1-.41,3.27,5.74,5.74,0,0,1,0,2.72,4.38,4.38,0,0,0-.36,1.75s1.84,2.26,1,4.56-4.11,7.45-5.89,8.78a38.15,38.15,0,0,1-5.14,2.92l-2.2,4.61-9.11-8.26Z" style="fill:#ffbf9d"></path><path d="M351.15,144a2,2,0,0,1-.23.4l-.68,1c-.58.87-1.39,2.06-2.3,3.37l-1.28,1.85a4.85,4.85,0,0,1-.66.75,2.82,2.82,0,0,1-.73.47,5.62,5.62,0,0,1-1.18.4,1.75,1.75,0,0,1-.45.08,4.06,4.06,0,0,1,.43-.15,7.07,7.07,0,0,0,1.14-.44c1-.42,1.64-1.79,2.58-3.06s1.74-2.49,2.35-3.34l.72-1A3,3,0,0,1,351.15,144Z" style="fill:#ff9a6c"></path><path d="M352.32,151.61a30.46,30.46,0,0,1,1.47-2.87,29.59,29.59,0,0,1,1.63-2.78,26.61,26.61,0,0,1-1.47,2.87A26.4,26.4,0,0,1,352.32,151.61Z" style="fill:#ff9a6c"></path><path d="M353.52,156.17s0-.16-.13-.4a1.76,1.76,0,0,0-.6-.76,1.64,1.64,0,0,0-.92-.29c-.26,0-.42,0-.42,0s.14-.11.42-.13a1.55,1.55,0,0,1,1,.27,1.57,1.57,0,0,1,.61.87C353.58,156,353.54,156.18,353.52,156.17Z" style="fill:#ff9a6c"></path><path d="M357.75,157.54s-.16-.08-.37-.26a4.57,4.57,0,0,0-.89-.58,1.69,1.69,0,0,0-1-.16c-.26.05-.35.21-.38.19s0-.22.34-.32a1.62,1.62,0,0,1,1.12.12,3,3,0,0,1,.9.66C357.66,157.39,357.77,157.52,357.75,157.54Z" style="fill:#ff9a6c"></path><path d="M356.12,153.7a7.7,7.7,0,0,1,.84-1.49,7.87,7.87,0,0,1,1-1.4,7.93,7.93,0,0,1-.84,1.5A8,8,0,0,1,356.12,153.7Z" style="fill:#ff9a6c"></path><path d="M348.81,154s0-.16-.09-.39a1.45,1.45,0,0,0-.52-.74,1.54,1.54,0,0,0-.86-.26c-.24,0-.38,0-.39,0s.12-.11.38-.15a1.35,1.35,0,0,1,1.52,1.1C348.89,153.88,348.83,154,348.81,154Z" style="fill:#ff9a6c"></path><path d="M338.84,154s.17-.17.33-.48a1.69,1.69,0,0,0,.09-1.33,1.73,1.73,0,0,0-.95-.94c-.33-.14-.56-.13-.56-.16a.87.87,0,0,1,.61,0,1.7,1.7,0,0,1,1.07,1,1.65,1.65,0,0,1-.15,1.46C339.07,153.92,338.85,154,338.84,154Z" style="fill:#455a64"></path><path d="M306.78,177.08l14.47,12.38L339,162.94l11.54,6.81s-17.3,39.82-22,43.34-8.64,2.6-14.68-.18-27.51-24.42-27.51-24.42Z" style="fill:#ffbf9d"></path><path d="M321.76,200.46c-.14,0,.25-2.52.08-5.61s-.82-5.53-.68-5.57a19.05,19.05,0,0,1,.6,11.18Z" style="fill:#ff9a6c"></path><path d="M247.77,156.83s12.29.18,12.47,15.5-3.13,35.82-3.13,35.82l-31.38-5.53s3.89-28.53,7.22-36.74S242.68,155.44,247.77,156.83Z" style="fill:#FFDE3E"></path><path d="M253.6,145.8l-.39,2.5s-16.77,11.08-17.72,13.94c-1.47,4.43,1.74,41.89,3.15,52.51s1.7,34,1.7,34c-1,2.76-2.2,5.24-2.58,9.09s2.58,7.29,2.58,7.29c18,5.87,40,1.36,63.76-4.06l-.23-6.74-7.77-73.23s2.27-19-7-24.54c-1-.61-9.12-5.21-9.12-5.21Z" style="fill:#FFDE3E"></path><g style="opacity:0.30000000000000004"><path d="M280.57,177.54a56.73,56.73,0,0,0,5.52,22.59,66.91,66.91,0,0,0,14.11,19.58l-2.52-21.91Z"></path></g><path d="M294.65,159.06c-2.94-2.38-8.41-3.68-11.53-1.54a9.33,9.33,0,0,0-3.78,4.66c-2.67,7.79-1.07,16.16,1.06,22.38s12.42,18.18,12.42,18.18l25.45-15.44s-17-20.64-18.81-22.78A44.69,44.69,0,0,0,294.65,159.06Z" style="fill:#FFDE3E"></path><path d="M294.65,159.06a3.89,3.89,0,0,1,.54.43,17.29,17.29,0,0,1,1.4,1.42c1.18,1.3,2.73,3.32,4.83,5.79l17,20.46.15.19-.2.13-24,14.61-1.39.85-.17.1-.13-.15c-2.85-3.36-5.49-6.74-7.86-10.14a53,53,0,0,1-3.25-5.18,21.26,21.26,0,0,1-1.25-2.7c-.34-.92-.62-1.84-.88-2.75-2.13-7.31-2.18-14.48-.25-19.93a9.37,9.37,0,0,1,5.3-5.47,8.69,8.69,0,0,1,3.17-.37,11.16,11.16,0,0,1,2.63.45,12.92,12.92,0,0,1,3.37,1.48,6.34,6.34,0,0,1,1,.78s-.35-.28-1.07-.7a13.49,13.49,0,0,0-3.37-1.39,11.54,11.54,0,0,0-2.6-.4,8.46,8.46,0,0,0-8.14,5.72c-1.87,5.39-1.78,12.47.34,19.71.27.9.55,1.82.89,2.72a19.69,19.69,0,0,0,1.23,2.64,53.36,53.36,0,0,0,3.23,5.13c2.36,3.38,5,6.75,7.84,10.1l-.3-.05,1.4-.85,24.06-14.57-.05.31-16.88-20.57c-2.07-2.49-3.6-4.55-4.74-5.86-.57-.66-1-1.15-1.35-1.46S294.64,159.07,294.65,159.06Z" style="fill:#263238"></path><path d="M235.16,170.72a1.43,1.43,0,0,1,.07.44c0,.35.07.77.12,1.28.09,1.18.2,2.77.34,4.71.26,4,.6,9.49,1,15.52s.81,11.55,1.17,15.51c.18,1.93.33,3.51.44,4.69,0,.51.08.94.11,1.28a2.2,2.2,0,0,1,0,.45,1.68,1.68,0,0,1-.11-.44c-.05-.34-.11-.76-.19-1.26-.17-1.11-.37-2.71-.59-4.69-.44-4-.91-9.44-1.31-15.51s-.67-11.56-.85-15.54c-.08-1.93-.14-3.52-.19-4.71,0-.51,0-.93,0-1.28A1.59,1.59,0,0,1,235.16,170.72Z" style="fill:#263238"></path><path d="M291.42,259.65a2.87,2.87,0,0,1-.47.14l-1.37.34c-.6.14-1.33.3-2.19.46s-1.83.35-2.92.52c-2.16.37-4.76.67-7.64.95s-6.08.42-9.43.47-6.54-.1-9.44-.29-5.5-.49-7.66-.85c-1.09-.14-2.07-.33-2.92-.49s-1.6-.3-2.19-.45l-1.38-.33a1.7,1.7,0,0,1-.47-.15,3,3,0,0,1,.49.06l1.39.24c.6.12,1.34.25,2.2.37s1.84.3,2.92.43c2.17.31,4.76.53,7.65.74s6.06.27,9.4.25,6.52-.21,9.4-.42,5.47-.53,7.63-.86c1.09-.14,2.07-.3,2.92-.45s1.6-.26,2.2-.38l1.39-.25A1.65,1.65,0,0,1,291.42,259.65Z" style="fill:#263238"></path></g><g id="freepik--character-1--inject-32"><path d="M101,102.76a13.36,13.36,0,0,0-10.17,2.54,12.91,12.91,0,0,0-4.64,5.8,8.89,8.89,0,0,0,.34,7.3,11.31,11.31,0,0,0,6,4.72,12.87,12.87,0,0,0,6.38,1,7.29,7.29,0,0,0,5.37-3.3l4.16-8.79A9.08,9.08,0,0,0,101,102.76Z" style="fill:#263238"></path><path d="M140.29,113.71h0a23.55,23.55,0,0,0-30.29-6,34.22,34.22,0,0,0-3,2,24.83,24.83,0,0,0-9.67,21.14,27.79,27.79,0,0,0,11.46,20.46l31.64-7.71a64.92,64.92,0,0,0,3.47-17,23.31,23.31,0,0,0,.08-2.5A17.29,17.29,0,0,0,140.29,113.71Z" style="fill:#263238"></path><path d="M105,126.57a11.73,11.73,0,0,1,8.83-10.81l15.83-4c6.85-.74,11.41,7.68,11.86,14.54.5,7.63.81,15.68-.08,21.38-1.8,11.45-10.57,12.93-10.57,12.93s0,5.45,0,8.79l.17,14.55-22.54-16.2-3.53-41C105,126.51,105,126.83,105,126.57Z" style="fill:#ffbf9d"></path><path d="M139.42,135.47A1.47,1.47,0,0,1,138,137a1.41,1.41,0,0,1-1.52-1.32,1.47,1.47,0,0,1,1.41-1.49A1.41,1.41,0,0,1,139.42,135.47Z" style="fill:#263238"></path><path d="M139.58,131c-.19.19-1.3-.63-2.88-.62s-2.74.8-2.91.6.1-.43.61-.8a4.07,4.07,0,0,1,2.32-.72,3.82,3.82,0,0,1,2.29.73C139.5,130.54,139.66,130.89,139.58,131Z" style="fill:#263238"></path><path d="M125.79,135.47a1.48,1.48,0,0,1-1.42,1.49,1.41,1.41,0,0,1-1.51-1.32,1.47,1.47,0,0,1,1.41-1.49A1.41,1.41,0,0,1,125.79,135.47Z" style="fill:#263238"></path><path d="M124.88,131.27c-.18.19-1.3-.63-2.88-.62s-2.73.8-2.9.61.1-.43.6-.8a4,4,0,0,1,2.33-.72,3.87,3.87,0,0,1,2.29.73C124.8,130.84,125,131.19,124.88,131.27Z" style="fill:#263238"></path><path d="M129.75,143.16a10.47,10.47,0,0,1,2.56-.47c.41,0,.79-.12.86-.4a2.05,2.05,0,0,0-.28-1.19l-1.2-3.07c-1.66-4.37-2.87-8-2.69-8s1.67,3.42,3.33,7.79c.41,1.08.79,2.1,1.15,3.09a2.32,2.32,0,0,1,.22,1.58,1,1,0,0,1-.67.59,2.54,2.54,0,0,1-.68.1A10.28,10.28,0,0,1,129.75,143.16Z" style="fill:#263238"></path><path d="M115.7,156.49s3.72,7.87,15.18,6.77v-2.69A28.86,28.86,0,0,1,115.7,156.49Z" style="fill:#ff9a6c"></path><path d="M124.31,125c-.15.43-1.73.23-3.58.46s-3.35.73-3.6.35c-.11-.19.15-.59.75-1a6.18,6.18,0,0,1,2.67-.94,6,6,0,0,1,2.81.33C124,124.5,124.38,124.84,124.31,125Z" style="fill:#263238"></path><path d="M137.91,125.26c-.27.36-1.36,0-2.67,0s-2.42.24-2.67-.13c-.12-.18.06-.54.54-.88a3.85,3.85,0,0,1,4.31.12C137.88,124.72,138,125.09,137.91,125.26Z" style="fill:#263238"></path><path d="M106.58,134.87c-.12-.33-6.1-2.49-6.18,3.86-.07,6.17,6.15,5,6.16,4.78S106.58,134.87,106.58,134.87Z" style="fill:#ffbf9d"></path><path d="M104.68,141.15s-.11.08-.29.16a1.08,1.08,0,0,1-.8,0,2.67,2.67,0,0,1-1.21-2.4,3.51,3.51,0,0,1,.32-1.54,1.22,1.22,0,0,1,.81-.81.53.53,0,0,1,.63.3c.08.17,0,.29.08.3s.13-.1.08-.35a.62.62,0,0,0-.24-.39.77.77,0,0,0-.59-.16,1.48,1.48,0,0,0-1.13.94,3.69,3.69,0,0,0-.39,1.72,2.77,2.77,0,0,0,1.54,2.67,1.16,1.16,0,0,0,1-.15C104.67,141.3,104.7,141.16,104.68,141.15Z" style="fill:#ff9a6c"></path><path d="M104,142.24a1.21,1.21,0,0,0-.59,2.35,1.25,1.25,0,0,0,1.5-.71,1.27,1.27,0,0,0-.62-1.55" style="fill:#fff"></path><path d="M104.27,142.33a1.75,1.75,0,0,1,.55.83,1,1,0,0,1-.24,1,1.16,1.16,0,0,1-1.15.33,1.14,1.14,0,0,1-.74-.93,1,1,0,0,1,.36-.93,1.63,1.63,0,0,1,.93-.36s-.09-.06-.29-.07a1.35,1.35,0,0,0-.77.27,1.23,1.23,0,0,0-.49,1.11,1.32,1.32,0,0,0,2.35.75,1.23,1.23,0,0,0,.24-1.19,1.3,1.3,0,0,0-.48-.67A.53.53,0,0,0,104.27,142.33Z" style="fill:#263238"></path><path d="M123.75,145.87a2.28,2.28,0,0,1,1.85-1.11,3,3,0,0,1,2.74,1.23,1.84,1.84,0,0,1,.17,1.32c-.09.23,0,.12-.18.28a5.27,5.27,0,0,1-2.06,1.39,2.22,2.22,0,0,1-2.38-.77A2.25,2.25,0,0,1,123.75,145.87Z" style="fill:#ff9a6c"></path><path d="M124,143.72c.26,0,.34,1.67,1.85,2.81s3.31.87,3.33,1.11-.39.35-1.15.4a4.26,4.26,0,0,1-2.78-.82,3.7,3.7,0,0,1-1.44-2.37C123.7,144.14,123.87,143.71,124,143.72Z" style="fill:#263238"></path><path d="M132.65,110.85a2.55,2.55,0,0,0-2.06-1,32.74,32.74,0,0,0-29,12.52l1.76,10.66c-.75,1.32,2.76,4,4.27,3.9a4.11,4.11,0,0,0,3.25-2.85c1.06-2.78.45-6.35,2.63-8.38,1.22-1.15,3-1.43,4.63-1.79a23.85,23.85,0,0,0,8.77-3.71,15.35,15.35,0,0,0,5.74-7.49A2.35,2.35,0,0,0,132.65,110.85Z" style="fill:#263238"></path><path d="M99.71,140a5.16,5.16,0,0,1-.6-1.12,20.82,20.82,0,0,1-1.17-3.26,23.95,23.95,0,0,1,4.66-21.56,21,21,0,0,1,2.41-2.49,5.43,5.43,0,0,1,1-.77c.07.08-1.35,1.2-3.13,3.48a24.79,24.79,0,0,0-4.59,21.25C99,138.36,99.8,140,99.71,140Z" style="fill:#455a64"></path><polygon points="107.42 421.94 111.05 453.24 124.76 451.15 125.69 420.3 107.42 421.94" style="fill:#263238"></polygon><path d="M124.81,444.94s-9.21,7.81-14.34,2.07l-.25-.93-4.79,25.49a2.83,2.83,0,0,0,1.79,3.26,2.62,2.62,0,0,0,2.78-.78c3.72-4.19,17.35-20.39,17.35-20.39l-.54-4.08a13.53,13.53,0,0,0-2-4.64Z" style="fill:#263238"></path><path d="M126.92,450.61,107.7,474.93a2.66,2.66,0,0,0,2.38-.88c10.29-11.72,17.27-20.39,17.27-20.39Z" style="fill:#e0e0e0"></path><path d="M112.88,462.84a8,8,0,0,0-2.42-1.91,8.11,8.11,0,0,0-3-.37c0-.06.29-.29.89-.42a4,4,0,0,1,2.37.25,4.21,4.21,0,0,1,1.86,1.5C112.88,462.42,113,462.81,112.88,462.84Z" style="fill:#455a64"></path><path d="M111.26,466.55a20.59,20.59,0,0,0-2.38-1,20.19,20.19,0,0,0-2.57-.15A2.92,2.92,0,0,1,109,465C110.57,465.34,111.4,466.46,111.26,466.55Z" style="fill:#455a64"></path><path d="M116,458c-.11.14-1.48-1.11-3.58-1.76s-3.91-.46-3.92-.64a5.8,5.8,0,0,1,4.1.08A6,6,0,0,1,116,458Z" style="fill:#455a64"></path><path d="M116,451.55c-.06.17-1.54-.34-3.42-.27s-3.33.64-3.39.48,1.36-1,3.38-1.07A5.05,5.05,0,0,1,116,451.55Z" style="fill:#263238"></path><path d="M161.76,446.6c-.31-.48-3.19-11-3.19-11l17.76-4.83,2.52,15.09Z" style="fill:#263238"></path><path d="M178.11,441.47l.6,2.67s19.54,8,19.79,11.84l-38.62.28.48-14.23C166.12,444.79,171.51,444.31,178.11,441.47Z" style="fill:#263238"></path><path d="M159.88,456.26,160,453l37,.92s1.73.77,1.54,2.05Z" style="fill:#e0e0e0"></path><path d="M178.85,444.25c0,.2-.95.3-1.88.94s-1.41,1.48-1.58,1.4.1-1.22,1.23-2S178.89,444.07,178.85,444.25Z" style="fill:#455a64"></path><path d="M182.91,446c0,.19-.77.54-1.41,1.38s-.81,1.73-1,1.72-.31-1.12.49-2.16S182.9,445.79,182.91,446Z" style="fill:#455a64"></path><path d="M185.24,451.06c-.17,0-.44-.94,0-2s1.36-1.53,1.44-1.37-.46.75-.84,1.65S185.43,451,185.24,451.06Z" style="fill:#455a64"></path><path d="M149.73,257.32s9.8,43.93,18.09,94.6c6.81,41.67,9.83,86.78,9.83,86.78l-20.07,1.18s-12.22-51.68-21.75-88.83c-8.78-34.26-15.92-52.23-15.92-52.23l-4-45.22Z" style="fill:#263238"></path><path d="M94.37,248.57s-17.6,23.79-16.12,48.63c.89,14.85,31,146.87,31,146.87l17.82-.6-5.69-140.24,6-45.91Z" style="fill:#263238"></path><path d="M148.39,184.55a3.54,3.54,0,0,1,.09.73c0,.55.09,1.25.16,2.12.14,1.85.24,4.52.3,7.82.12,6.61-.19,15.74-.85,25.79s-1.23,19.15-1.35,25.75c-.08,3.29-.1,6-.08,7.81v2.12a3.13,3.13,0,0,1,0,.75,4,4,0,0,1-.07-.74c0-.55-.07-1.25-.11-2.13-.09-1.84-.13-4.52-.11-7.82,0-6.61.53-15.72,1.19-25.78s1-19.15,1-25.74c0-3.3,0-6-.12-7.82,0-.87,0-1.58,0-2.12A3.48,3.48,0,0,1,148.39,184.55Z" style="fill:#263238"></path><path d="M207.35,185.84l-10.73,3.94L184.9,205.65l3.2,5.55,3.16-3s12.07-2.25,12.94-4a3.33,3.33,0,0,0-.12-3.19,7.4,7.4,0,0,0,.09-3.35,2.18,2.18,0,0,0-1.51-1.67,1.66,1.66,0,0,0,.76-2.23,2.93,2.93,0,0,0-1.75-2s7.2-3.42,7.84-4.39a.8.8,0,0,0-.07-1A1.8,1.8,0,0,0,207.35,185.84Z" style="fill:#ffbf9d"></path><path d="M183.06,202.34l2.16-3,4.68-8.49L200.33,188s1.76.82-.67,3.93a6.28,6.28,0,0,1-5.82,2.48s.74,6.77-1.1,9.8-6.82,3.28-6.82,3.28Z" style="fill:#ffbf9d"></path><path d="M192.86,204.68a2.55,2.55,0,0,0,.46-.67,9.78,9.78,0,0,0,.85-2.06,11.6,11.6,0,0,0-.29-7.4l-.16.31.37-.06a13,13,0,0,0,3.94-1.15,5.22,5.22,0,0,0,2.38-2.47,3.88,3.88,0,0,0,.33-2.34,1.9,1.9,0,0,0-.31-.8s.09.3.15.83a4,4,0,0,1-.44,2.17,5,5,0,0,1-2.28,2.24,13.17,13.17,0,0,1-3.84,1.08l-.37.06-.26,0,.1.26a11.93,11.93,0,0,1,.4,7.14A23.66,23.66,0,0,1,192.86,204.68Z" style="fill:#ff9a6c"></path><path d="M202.37,196.39a11,11,0,0,0-1.07.39c-.68.25-1.68.58-2.91,1.05a11,11,0,0,0-1.94,1,2.11,2.11,0,0,0-.87,1,1.59,1.59,0,0,0,.21,1.42,2.43,2.43,0,0,0,1.09.94,2.39,2.39,0,0,0,1.47.09q.35-.07.69-.12a6,6,0,0,0,.73-.17c.47-.14.94-.31,1.4-.49l1.25-.49-.14-.42a10.75,10.75,0,0,0-2.38,1.35l-1.05.72a10.28,10.28,0,0,0-1,.69,1.52,1.52,0,0,0-.59,1.16,1.08,1.08,0,0,0,.22.65,1.33,1.33,0,0,0,.5.36,4.62,4.62,0,0,0,2,.27,9.56,9.56,0,0,0,2.7-.72,4.14,4.14,0,0,0,.91-.45,5.55,5.55,0,0,0-1,.29,10.3,10.3,0,0,1-2.67.57,4.35,4.35,0,0,1-1.81-.29.73.73,0,0,1-.49-.68,1.16,1.16,0,0,1,.47-.85c.28-.24.65-.41,1-.65l1.07-.71a10.46,10.46,0,0,1,2.28-1.29l-.14-.42L201,201c-.46.18-.92.35-1.37.48a4.33,4.33,0,0,1-.67.16c-.24,0-.48.08-.71.13a2,2,0,0,1-1.23-.05,2.13,2.13,0,0,1-.93-.77,1.22,1.22,0,0,1-.18-1.06,1.79,1.79,0,0,1,.71-.81,11.31,11.31,0,0,1,1.87-1c1.19-.5,2.19-.88,2.85-1.18A3.68,3.68,0,0,0,202.37,196.39Z" style="fill:#ff9a6c"></path><path d="M201.56,191.9a7.49,7.49,0,0,0-2.21.77,16.5,16.5,0,0,0-2.24,1.28c-.4.27-.81.58-1.22.91a2.24,2.24,0,0,0-1,1.47,1.19,1.19,0,0,0,.37.93,1.61,1.61,0,0,0,.81.39,5,5,0,0,0,1.55,0,17.77,17.77,0,0,0,2.49-.54,6.78,6.78,0,0,0,2.18-.87c0-.06-.86.26-2.25.57a23.54,23.54,0,0,1-2.47.43,5.2,5.2,0,0,1-1.42,0,.94.94,0,0,1-.84-.87,2,2,0,0,1,.84-1.16c.4-.33.79-.63,1.18-.91a20.23,20.23,0,0,1,2.15-1.33C200.74,192.28,201.58,192,201.56,191.9Z" style="fill:#ff9a6c"></path><path d="M163.2,211.15l-10.76-34.51a9.91,9.91,0,0,0-6.44-6.57l-6.58-1.49,7.28,56,1.63,4.21c3.84,8.57,12.26,7.12,19.68,3.33q.41-.19.78-.42l21.72-17.5-7.19-12.94Z" style="fill:#455a64"></path><path d="M160.8,221c.14,0,.18-2.3.91-5s1.82-4.69,1.71-4.76a12.29,12.29,0,0,0-2.12,4.64A12.83,12.83,0,0,0,160.8,221Z" style="fill:#263238"></path><path d="M95.67,186.48l7.27,67.88,40.29,3,3.21-2.75-1.12-51.25-14.47-36.51h0c-1.72,3.26-5,4.37-9,4.07a14.9,14.9,0,0,1-7.5-2.85l-6.65-4.79Z" style="fill:#fff"></path><path d="M107.71,163.24l-4.91,5.34L79.74,174.1l13.49,65.24L83,264.59a63.48,63.48,0,0,0-2.69,8.17l-6.33,24.77s21.79,5.93,27.4,2.69,12.47-34.74,14.55-42.21,5.19-29.71,3.73-41.55-5.14-25.12-6.39-31.14S107.71,163.24,107.71,163.24Z" style="fill:#455a64"></path><path d="M83.9,231.43l5.19-20.16L79.74,174.1s-4.37,3.11-7.27,14.52c-3,11.95-13.2,44.84-12.58,52.53s41.25,21.63,41.25,21.63l1.66-21.39Z" style="fill:#455a64"></path><path d="M130.88,162.11l3.18,4.92,13.23,3.34s3.48,17.44,3.48,22.22-2,57.74-2,60.23,9.56,36.36,8.73,38.43-10.8,3.54-10.8,3.54S143,265.49,143,255.52,142.57,221,140.5,209s-9.56-42-9.56-42Z" style="fill:#455a64"></path><path d="M143.21,261.09a1.15,1.15,0,0,1,0-.25v-.73c0-.68,0-1.61,0-2.79.06-2.48.14-6,.23-10.29.21-8.68.56-20.68.77-33.93,0-1.66,0-3.29,0-4.9s-.17-3.18-.29-4.74c-.25-3.12-.5-6.12-.79-9s-.62-5.56-1-8.07a35.21,35.21,0,0,0-1.94-6.78,89.44,89.44,0,0,0-4.35-9.29l-1.34-2.46-.35-.64c-.08-.14-.11-.22-.1-.22a.85.85,0,0,1,.15.2l.39.61c.34.54.83,1.35,1.43,2.41a78.26,78.26,0,0,1,4.52,9.25,34.66,34.66,0,0,1,2,6.84c.45,2.53.79,5.24,1.1,8.1s.56,5.86.82,9c.12,1.55.3,3.14.3,4.77s0,3.26,0,4.92c-.21,13.26-.62,25.25-.92,33.93-.17,4.31-.31,7.81-.4,10.28-.06,1.18-.11,2.12-.14,2.8,0,.29,0,.53-.05.72A1,1,0,0,1,143.21,261.09Z" style="fill:#263238"></path><path d="M118.59,241.15a3.69,3.69,0,0,1-.12-.75c0-.49-.12-1.21-.18-2.15-.12-1.87-.24-4.59-.18-7.95,0-1.67.1-3.51.23-5.48a24,24,0,0,0-.78-6.17A102.31,102.31,0,0,0,112.78,205c-2-4.74-4.07-9.19-6-13.22a53.35,53.35,0,0,1-2.56-5.82,50.39,50.39,0,0,1-1.35-5.34c-.67-3.3-1-6-1.27-7.86-.11-.93-.19-1.66-.23-2.15a6,6,0,0,1,0-.75,3.76,3.76,0,0,1,.15.74q.12.81.33,2.13c.3,1.85.72,4.54,1.43,7.81a51.13,51.13,0,0,0,1.4,5.29,54.25,54.25,0,0,0,2.59,5.75c1.94,4,4,8.48,6,13.23a96.83,96.83,0,0,1,4.77,13.7,24.15,24.15,0,0,1,.74,6.3c-.15,2-.25,3.79-.3,5.46-.1,3.35,0,6.06,0,7.93q.06,1.35.09,2.16A4.27,4.27,0,0,1,118.59,241.15Z" style="fill:#263238"></path><path d="M178.17,239.52l-11.34,15.32a2.07,2.07,0,0,1-2,.81l-49.06-9.27a2.07,2.07,0,0,1-1.58-2.68l5.29-16.29a2.06,2.06,0,0,1,2.34-1.39l55.11,10.23A2.07,2.07,0,0,1,178.17,239.52Z" style="fill:#263238"></path><path d="M72.47,232.77a4.77,4.77,0,0,1,1.65-1.33,10.07,10.07,0,0,1,9.9-.14,4.78,4.78,0,0,1,1.69,1.29c-.06.07-.7-.42-1.86-1a10.89,10.89,0,0,0-9.56.13C73.15,232.33,72.52,232.84,72.47,232.77Z" style="fill:#263238"></path><g style="opacity:0.30000000000000004"><polygon points="84.08 261.85 103.46 268.97 105.48 260.93 114.66 262.78 115.89 258.14 101.49 256.12 101.34 262.78 86.28 257.1 84.08 261.85"></polygon></g><path d="M102.67,243.1s3.87-3.28,5.07-4,5.26-3.41,7.11-3.13l1.85.27-1.66,4.9s14.86-2.22,16.89.18-2.21,2.86-4.43,3.14-9.34,1.48-9.34,1.48,18.57-2,19.86,0-1.8,2.49-1.8,2.49l-12.3,4.89-1.41.56-1.41,1.84s-5,3.51-6.62,3.05-13-2.63-13-2.63Z" style="fill:#ffbf9d"></path><path d="M115.58,251.49a13.9,13.9,0,0,1,2.88-.88,70.09,70.09,0,0,1,7.13-1.36,68.84,68.84,0,0,1,7.23-.65,15.78,15.78,0,0,1,3,.05,19,19,0,0,1-3,.33c-1.85.15-4.39.4-7.19.79s-5.31.85-7.12,1.21A20.08,20.08,0,0,1,115.58,251.49Z" style="fill:#ff9a6c"></path><path d="M117.26,255.07a7.58,7.58,0,0,1,2.67-1,7.73,7.73,0,0,1,2.79-.45,7.81,7.81,0,0,1-2.66,1A7.68,7.68,0,0,1,117.26,255.07Z" style="fill:#ff9a6c"></path><path d="M150.44,185.32a3,3,0,0,1,.09.68c0,.5.08,1.15.14,2,.13,1.7.22,4.17.28,7.22.11,6.11-.17,14.54-.78,23.83S149,236.7,148.92,242.8c-.07,3-.09,5.51-.07,7.21v2a3.22,3.22,0,0,1,0,.68,3.28,3.28,0,0,1-.07-.68c0-.5-.06-1.15-.1-2-.09-1.71-.12-4.18-.1-7.23,0-6.1.49-14.53,1.1-23.82s1-17.69.93-23.79c0-3,0-5.51-.11-7.21,0-.81,0-1.46,0-2A2.71,2.71,0,0,1,150.44,185.32Z" style="fill:#263238"></path><path d="M90.57,209.14a6.2,6.2,0,0,1-.09-1.36c0-.88-.06-2.15-.17-3.72a65,65,0,0,0-2-12.05A64.6,64.6,0,0,0,84,180.56c-.68-1.41-1.27-2.54-1.7-3.31a7,7,0,0,1-.61-1.23,6.07,6.07,0,0,1,.79,1.13c.48.73,1.12,1.84,1.86,3.24a57.49,57.49,0,0,1,4.46,11.48A56.42,56.42,0,0,1,90.68,204c.06,1.58.06,2.86,0,3.74A6.19,6.19,0,0,1,90.57,209.14Z" style="fill:#263238"></path></g></svg>
